<svg width="131" height="18" viewBox="0 0 131 18" fill="none" xmlns="http://www.w3.org/2000/svg">
<path fill-rule="evenodd" clip-rule="evenodd" d="M22.1962 6.23583C21.4585 5.84968 20.6384 5.64808 19.8058 5.64808C18.9735 5.64808 18.1534 5.84968 17.4156 6.23583C17.059 6.43666 16.7327 6.68746 16.4469 6.98063V0H13.2343V17.749H16.4469V10.9486C16.4375 10.5117 16.5428 10.0799 16.7527 9.69661C16.9509 9.34455 17.2441 9.05552 17.599 8.86245C17.9764 8.66188 18.3986 8.56037 18.8258 8.56747C19.1428 8.5512 19.4598 8.6017 19.7559 8.7156C20.0522 8.82938 20.3213 9.00412 20.5459 9.22845C20.7705 9.45291 20.9457 9.7218 21.0599 10.0181C21.1745 10.3143 21.2252 10.6314 21.2097 10.9486V17.749H24.4241V10.2372C24.4404 9.40538 24.2372 8.584 23.8345 7.85612C23.448 7.17526 22.881 6.6145 22.1962 6.23583ZM8.2146 14.7171C7.75273 14.9111 7.25571 15.007 6.7549 14.9993C6.2007 15.0086 5.65417 14.8687 5.17252 14.5943C4.70827 14.3259 4.3264 13.9354 4.06824 13.4652C3.7922 12.9572 3.65272 12.3862 3.66346 11.8082C3.64898 11.2296 3.78867 10.6577 4.06824 10.1511C4.33271 9.69183 4.71361 9.31059 5.17252 9.04596C5.65461 8.77269 6.20095 8.63334 6.7549 8.64238C7.24606 8.63644 7.73351 8.72813 8.18908 8.91191C8.61453 9.08729 8.99561 9.35527 9.30455 9.69661L11.365 7.61061C10.8004 6.97805 10.1056 6.47527 9.32843 6.13691C8.51519 5.78782 7.63811 5.61244 6.75326 5.62173C5.61647 5.6074 4.49572 5.89114 3.50249 6.44467C2.53963 6.97198 1.73934 7.75281 1.18821 8.70269C0.63711 9.6527 0.356172 10.7353 0.375979 11.8336C0.359624 12.9248 0.641186 13.9998 1.19016 14.9427C1.73913 15.8855 2.53478 16.6605 3.49135 17.1844C4.48987 17.7334 5.61409 18.0127 6.75326 17.9945C7.63811 18.0039 8.51519 17.8284 9.32843 17.4795C10.12 17.1304 10.8304 16.6205 11.4143 15.9819L9.32843 13.8942C9.02463 14.2499 8.64367 14.5313 8.2146 14.7171ZM34.2512 6.16248C34.6821 6.38061 35.0721 6.6721 35.4033 7.02364V5.89295H38.5903V17.749H35.4033V16.6007C35.0698 16.951 34.6802 17.2435 34.2512 17.4665C33.5453 17.8271 32.7616 18.0086 31.9693 17.9945C30.9395 18.0086 29.9271 17.7274 29.0517 17.1844C28.1859 16.6457 27.4822 15.8822 27.0152 14.9754C26.5308 13.9945 26.2787 12.9151 26.2787 11.821C26.2787 10.7267 26.5308 9.64728 27.0152 8.66627C27.4819 7.75926 28.1857 6.99587 29.0517 6.45745C29.9271 5.91425 30.9395 5.63323 31.9693 5.64731C32.7603 5.6331 33.543 5.80977 34.2512 6.16248ZM32.5589 15.025C33.4589 15.024 34.1865 14.7251 34.7421 14.1286C35.2976 13.5311 35.5754 12.7575 35.5754 11.8082C35.5866 11.2331 35.4566 10.6639 35.1961 10.1511C34.956 9.68408 34.5907 9.29303 34.1413 9.02194C33.6609 8.7444 33.1137 8.60428 32.5589 8.61693C32.0122 8.60583 31.4727 8.74608 31.0004 9.02194C30.5511 9.29264 30.1862 9.68383 29.947 10.1511C29.6856 10.6637 29.5548 11.2328 29.5662 11.8082C29.5532 12.3918 29.684 12.9697 29.947 13.4907C30.1867 13.9577 30.5514 14.3488 31.0004 14.6197C31.4727 14.8957 32.0122 15.0358 32.5589 15.025ZM49.256 5.92962C48.7641 5.73487 48.2388 5.63904 47.7101 5.64731C46.3853 5.64731 45.3719 6.06833 44.6697 6.91037L44.6443 6.94395V5.89295H41.4317V17.749H44.6443V11.1941C44.6443 10.3106 44.861 9.65193 45.2945 9.21812C45.5158 9.00076 45.7787 8.83093 46.0679 8.71909C46.3568 8.60725 46.6657 8.55559 46.9754 8.56747C47.2722 8.56243 47.5673 8.61267 47.8456 8.71573C48.0938 8.81014 48.3165 8.96137 48.4958 9.15755L50.5068 6.8498C50.1664 6.45048 49.7384 6.13548 49.256 5.92962ZM58.5589 6.16248C58.9902 6.38061 59.3806 6.67197 59.7126 7.02364L59.7173 5.89295H62.9044V17.749H59.7173V16.6007C59.3829 16.951 58.9933 17.2435 58.5637 17.4665C57.8583 17.8271 57.0751 18.0083 56.2833 17.9945C55.253 18.0086 54.2401 17.7274 53.364 17.1844C52.4984 16.6457 51.7947 15.8822 51.3275 14.9754C50.8432 13.9945 50.5914 12.9151 50.5914 11.821C50.5914 10.7267 50.8432 9.64728 51.3275 8.66627C51.7929 7.75978 52.495 6.99651 53.3592 6.45745C54.2353 5.91438 55.2481 5.63323 56.2784 5.64731C57.069 5.63323 57.8511 5.8099 58.5589 6.16248ZM56.8667 15.025C57.7665 15.024 58.4941 14.7251 59.0497 14.1287C59.6054 13.5311 59.8832 12.7575 59.8832 11.8082C59.8943 11.2331 59.764 10.6639 59.5039 10.1511C59.2643 9.6837 58.8989 9.29264 58.4489 9.02194C57.9685 8.7444 57.4211 8.60428 56.8667 8.61693C56.3203 8.60609 55.7816 8.74634 55.3098 9.02194C54.8595 9.29212 54.494 9.68331 54.2548 10.1511C53.9934 10.6637 53.8626 11.2328 53.874 11.8082C53.8608 12.3918 53.9916 12.9697 54.2548 13.4907C54.4945 13.9581 54.8597 14.3493 55.3098 14.6197C55.7816 14.8955 56.3203 15.0356 56.8667 15.025ZM72.7988 14.7171C72.3367 14.9108 71.8399 15.007 71.339 14.9993C70.7849 15.0091 70.238 14.8692 69.7566 14.5943C69.2922 14.3264 68.91 13.9358 68.6522 13.4652C68.3762 12.9572 68.2369 12.3862 68.2475 11.8082C68.233 11.2296 68.3729 10.6577 68.6522 10.1511C68.9165 9.69158 69.2973 9.3102 69.7566 9.04596C70.2386 8.7723 70.7851 8.63308 71.339 8.64238C71.8302 8.63618 72.3177 8.72774 72.7731 8.91191C73.1988 9.08703 73.5799 9.35515 73.8885 9.69661L75.9474 7.61061C75.3833 6.97805 74.6891 6.47527 73.9124 6.13691C73.0992 5.78821 72.2223 5.61282 71.3372 5.62173C70.2005 5.6074 69.0797 5.89114 68.0866 6.44467C67.1236 6.97198 66.3233 7.75281 65.7722 8.70269C65.221 9.6527 64.9403 10.7353 64.9599 11.8336C64.9439 12.9247 65.2253 13.9993 65.774 14.9422C66.3225 15.8847 67.1177 16.6601 68.0738 17.1844C69.073 17.7334 70.1976 18.0125 71.3372 17.9945C72.2223 18.0037 73.0992 17.8282 73.9124 17.4795C74.7037 17.1309 75.4138 16.6208 75.9968 15.9819L73.9124 13.8942C73.6084 14.2495 73.2277 14.531 72.7988 14.7171ZM79.3591 0.956909H82.5735V5.89127H85.3445V8.71418H82.5735V17.749H79.3591V8.71418H76.5881V5.89127H79.3591V0.956909ZM95.339 6.39533C94.4184 5.86815 93.3721 5.60081 92.3112 5.62173C91.2025 5.60869 90.1104 5.89282 89.1483 6.44467C88.2202 6.97262 87.4464 7.73408 86.903 8.65361C86.4802 9.36315 86.2045 10.1507 86.0924 10.9692C85.9802 11.7878 86.0336 12.6205 86.2502 13.4179C86.4667 14.2152 86.8413 14.9608 87.3517 15.6102C87.8622 16.2594 88.498 16.7991 89.2215 17.197C90.2392 17.7418 91.3793 18.0161 92.533 17.9945C93.4533 18.0029 94.366 17.8276 95.218 17.4795C96.028 17.1464 96.7468 16.6246 97.3151 15.958L95.4267 14.0665C95.0784 14.4676 94.642 14.7831 94.1519 14.9882C93.6296 15.1984 93.0704 15.3025 92.5073 15.2944C91.8915 15.3074 91.283 15.1597 90.7417 14.8654C90.2374 14.584 89.8298 14.1564 89.5723 13.639C89.463 13.4228 89.377 13.1955 89.3155 12.9612L97.9731 12.9389C98.0326 12.6923 98.0777 12.4427 98.1087 12.1908C98.2452 10.9198 97.9972 9.63682 97.3963 8.50845C96.9134 7.63128 96.2027 6.9012 95.339 6.39533ZM89.3189 10.553C89.3755 10.3385 89.4533 10.13 89.5515 9.93102C89.7895 9.43134 90.1691 9.01264 90.6432 8.72697C91.1485 8.43277 91.7254 8.28425 92.3097 8.29794C92.8463 8.28038 93.377 8.41236 93.8427 8.67906C94.2645 8.93826 94.5978 9.31911 94.7988 9.77152C94.9098 10.0165 94.9943 10.2726 95.0506 10.5354L89.3189 10.553ZM109.211 6.8498L107.198 9.15755C107.019 8.9615 106.797 8.81014 106.55 8.71573C106.271 8.61254 105.975 8.56218 105.678 8.56747C105.368 8.55546 105.06 8.60699 104.771 8.71883C104.482 8.8308 104.219 9.00063 103.998 9.21812C103.565 9.65193 103.348 10.3106 103.348 11.1941V17.749H100.134V5.89295H103.348V6.94395L103.372 6.91037C104.077 6.06833 105.091 5.64731 106.414 5.64731C106.943 5.6393 107.468 5.73513 107.96 5.92962C108.442 6.13587 108.87 6.45087 109.211 6.8498ZM108.046 13.9198C107.777 13.9102 107.508 13.9576 107.259 14.0591C107.009 14.1605 106.784 14.3134 106.597 14.5082C106.235 14.9035 106.033 15.4203 106.033 15.9572C106.033 16.4938 106.235 17.0109 106.597 17.406C106.784 17.6007 107.009 17.7536 107.259 17.8552C107.508 17.9567 107.777 18.0042 108.046 17.9945C108.311 18.0019 108.574 17.9533 108.819 17.852C109.064 17.7505 109.285 17.5987 109.467 17.406C109.83 17.0109 110.031 16.4938 110.031 15.9572C110.031 15.4203 109.83 14.9035 109.467 14.5082C109.285 14.3155 109.064 14.1636 108.819 14.0622C108.574 13.9608 108.311 13.9123 108.046 13.9198ZM119.972 6.16248C120.403 6.38061 120.793 6.6721 121.124 7.02364L121.119 5.89295H124.306V17.7536H121.119V16.6054C120.785 16.9556 120.396 17.2482 119.967 17.4715C119.261 17.8318 118.478 18.013 117.685 17.9993C116.655 18.0132 115.642 17.7321 114.766 17.189C113.901 16.6503 113.197 15.8871 112.731 14.9803C112.247 13.9993 111.995 12.9199 111.995 11.8257C111.995 10.7315 112.247 9.65206 112.731 8.67105C113.197 7.76404 113.9 7.00065 114.766 6.46223C115.643 5.91671 116.658 5.634 117.69 5.64731C118.481 5.63323 119.264 5.8099 119.972 6.16248ZM118.278 15.025C119.177 15.024 119.904 14.7251 120.461 14.1286H120.456C121.013 13.5311 121.293 12.7575 121.296 11.8082C121.307 11.233 121.176 10.6638 120.915 10.1511C120.676 9.6837 120.31 9.29264 119.86 9.02194C119.38 8.7444 118.832 8.60428 118.278 8.61693C117.732 8.60609 117.193 8.74634 116.721 9.02194C116.271 9.29264 115.906 9.6837 115.666 10.1511C115.406 10.6639 115.276 11.2331 115.287 11.8082C115.274 12.3915 115.404 12.9692 115.666 13.4907C115.906 13.9579 116.272 14.3488 116.721 14.6197C117.193 14.8955 117.732 15.0356 118.278 15.025ZM130.391 5.89127H127.154V17.749H130.391V5.89127ZM129.486 3.85416C129.26 3.94514 129.017 3.98724 128.773 3.97755C128.532 3.98478 128.291 3.94152 128.068 3.85065C127.844 3.75974 127.642 3.62317 127.474 3.44963C127.143 3.09512 126.959 2.62794 126.959 2.14266C126.959 1.65736 127.143 1.19018 127.474 0.835704C127.821 0.489471 128.29 0.295 128.78 0.295C129.27 0.295 129.739 0.489471 130.087 0.835704C130.411 1.19379 130.589 1.65959 130.589 2.14266C130.589 2.62571 130.411 3.09153 130.087 3.44963C129.917 3.62533 129.712 3.76317 129.486 3.85416Z" fill="white"/>
</svg>
