<svg width="155" height="29" viewBox="0 0 155 29" fill="none" xmlns="http://www.w3.org/2000/svg">
<path d="M3.71338 5.00697H7.62874V23.6792H3.71338V5.00697Z" fill="white"/>
<path d="M11.4913 5.00696H15.4067V23.6792H11.4913V5.00696Z" fill="white"/>
<path d="M19.2693 5.00696H30.8578V8.11899H23.1848V12.5648H30.3322V15.6768H23.1848V20.5671H30.8578V23.6792H19.2693V5.00696Z" fill="white"/>
<path d="M33.2484 5.00696H36.9536V23.6792H33.2484V5.00696Z" fill="white"/>
<path d="M39.187 16.6706C39.187 11.571 41.736 9.37427 45.7039 9.37427C49.6718 9.37427 51.9317 11.5448 51.9317 16.7229V17.5597H42.8397C42.971 20.5933 43.8907 21.6132 45.6513 21.6132C47.0441 21.6132 47.9112 20.8025 48.0689 19.3903H51.774C51.5375 22.4762 48.9623 23.993 45.6513 23.993C41.447 23.993 39.187 21.7701 39.187 16.6706ZM48.2791 15.1276C48.0952 12.5648 47.2017 11.7279 45.6513 11.7279C44.101 11.7279 43.1287 12.5909 42.8659 15.1276H48.2791Z" fill="white"/>
<path d="M56.5039 9.6881H52.7199L57.2922 23.6792H61.3652L65.9375 9.6881H62.1535L59.2904 20.2272L56.5039 9.6881Z" fill="white"/>
<path d="M66.6472 16.6706C66.6472 11.571 69.1961 9.37427 73.164 9.37427C77.1319 9.37427 79.3918 11.5448 79.3918 16.7229V17.5597H70.2997C70.4312 20.5933 71.3509 21.6132 73.1115 21.6132C74.5042 21.6132 75.3713 20.8025 75.529 19.3903H79.2341C78.9977 22.4762 76.4225 23.993 73.1115 23.993C68.907 23.993 66.6472 21.7701 66.6472 16.6706ZM75.7392 15.1276C75.5552 12.5648 74.6619 11.7279 73.1115 11.7279C71.5611 11.7279 70.5888 12.5909 70.3261 15.1276H75.7392Z" fill="white"/>
<path d="M85.3831 15.4414C85.3831 13.2447 86.4341 12.0417 88.0634 12.0417C89.4035 12.0417 90.1654 12.8786 90.1654 14.683V23.6792H93.8711V14.1077C93.8711 10.8649 92.0312 9.37427 89.351 9.37427C87.5378 9.37427 86.04 10.2896 85.3831 11.4925V9.68808H81.6254V23.6792H85.3831V15.4414Z" fill="white"/>
<path d="M96.9441 5.00696H100.86V20.5671H108.217V23.6792H96.9441V5.00696Z" fill="white"/>
<path fill-rule="evenodd" clip-rule="evenodd" d="M109.138 16.6706C109.138 11.3356 111.608 9.37427 114.787 9.37427C116.364 9.37427 117.809 10.2634 118.387 11.2049V9.68808H122.171V23.6792H118.493V22.0316C117.94 23.13 116.39 23.993 114.682 23.993C111.319 23.993 109.138 21.8486 109.138 16.6706ZM115.76 12.1202C117.599 12.1202 118.597 13.5062 118.597 16.6706C118.597 19.8349 117.599 21.2471 115.76 21.2471C113.92 21.2471 112.869 19.8349 112.869 16.6706C112.869 13.5062 113.92 12.1202 115.76 12.1202Z" fill="white"/>
<path fill-rule="evenodd" clip-rule="evenodd" d="M128.714 22.0316V23.6792H125.035V5.00696H128.741V11.2049C129.371 10.2373 130.843 9.37427 132.42 9.37427C135.521 9.37427 137.99 11.3356 137.99 16.6706C137.99 22.0055 135.572 23.993 132.34 23.993C130.632 23.993 129.24 23.13 128.714 22.0316ZM131.369 12.1463C133.208 12.1463 134.259 13.5062 134.259 16.6706C134.259 19.8349 133.208 21.2471 131.369 21.2471C129.529 21.2471 128.53 19.8349 128.53 16.6706C128.53 13.5062 129.529 12.1463 131.369 12.1463Z" fill="white"/>
<path d="M139.514 19.5211H143.219C143.272 20.9856 144.061 21.6916 145.453 21.6916C146.846 21.6916 147.634 21.064 147.634 19.9656C147.634 18.9719 147.029 18.6058 145.716 18.2919L144.585 18.0043C141.38 17.1936 139.777 16.3306 139.777 13.6893C139.777 11.048 142.247 9.37427 145.4 9.37427C148.553 9.37427 150.945 10.6034 151.05 13.5062H147.345C147.266 12.2248 146.478 11.6756 145.348 11.6756C144.218 11.6756 143.43 12.2248 143.43 13.2709C143.43 14.2385 144.061 14.6046 145.164 14.8661L146.32 15.1538C149.368 15.9122 151.287 16.6706 151.287 19.4949C151.287 22.3193 148.764 23.993 145.348 23.993C141.642 23.993 139.593 22.6069 139.514 19.5211Z" fill="white"/>
</svg>
