<svg xmlns="http://www.w3.org/2000/svg" width="206" height="43" viewBox="0 0 206 43" fill="none">
<g clip-path="url(#clip0_141_1109)">
<path d="M166.89 14.7231C166.89 10.7375 160.762 10.7375 160.762 14.7231C160.762 18.7087 166.89 18.7087 166.89 14.7231ZM161.301 41.0892H166.272C166.423 41.0892 166.552 40.968 166.552 40.8111V21.0116C166.552 20.8619 166.43 20.7335 166.272 20.7335H161.301C161.15 20.7335 161.021 20.8548 161.021 21.0116V40.8111C161.021 40.9609 161.143 41.0892 161.301 41.0892ZM93.1812 21.0187C93.1812 20.869 93.3107 20.7407 93.4617 20.7407H98.3819C98.5402 20.7407 98.6624 20.8619 98.6624 21.0187V40.8183C98.6624 40.968 98.5402 41.0963 98.3819 41.0963H93.4617C93.3107 41.0963 93.1812 40.9751 93.1812 40.8183V39.3281C91.4476 40.9038 89.4263 40.9395 87.6208 40.968H87.3115C84.3623 40.968 81.859 40.0554 80.0679 38.3228C78.1833 36.4976 77.1834 33.8239 77.1834 30.5941C77.1834 24.384 81.2044 20.3699 87.4194 20.3699H87.5129C89.4767 20.3699 91.498 20.5696 93.1668 21.8672V21.0259L93.1812 21.0187ZM92.1166 34.1733C92.951 33.2107 93.3179 31.9202 93.3179 30.5228C93.3179 27.9775 91.7354 25.318 87.9445 25.318C84.8155 25.318 82.715 27.4356 82.715 30.587C82.715 33.7384 84.8155 35.8916 87.9445 35.8916C89.5414 35.8916 91.1815 35.2427 92.1166 34.1733ZM158.021 41.0892C158.179 41.0892 158.302 40.968 158.302 40.8111V36.3835C158.302 36.2338 158.179 36.1055 158.021 36.1055C157.518 36.1055 155.913 36.1055 155.583 36.0912C154.144 36.027 153.504 35.3354 153.504 33.831V26.2663H158.021C158.172 26.2663 158.302 26.1451 158.302 25.9882V21.0686C158.302 20.9189 158.172 20.7906 158.021 20.7906H153.54V16.4842C153.54 16.3344 153.417 16.2061 153.259 16.2061H148.289C148.138 16.2061 148.008 16.3273 148.008 16.4842V33.831C148.008 38.444 150.648 41.0892 155.266 41.0892H156.187H158.021ZM183.715 34.7437C183.615 34.6367 183.442 34.6296 183.327 34.7223C182.356 35.4994 181.14 35.9415 179.946 35.9415C176.932 35.9415 174.832 33.8025 174.832 30.7438C174.832 27.6851 176.939 25.5462 179.946 25.5462C181.133 25.5462 182.349 25.9882 183.327 26.7654C183.442 26.8581 183.607 26.8509 183.715 26.744L186.902 23.4358C187.01 23.3217 187.003 23.1434 186.895 23.0365C184.845 21.1328 182.73 20.3129 179.881 20.3129C173.436 20.3129 169.264 24.4054 169.264 30.7438C169.264 37.0822 173.429 41.1748 179.881 41.1748C182.73 41.1748 184.845 40.3548 186.895 38.4512C187.01 38.3442 187.01 38.166 186.902 38.0519L183.715 34.7437ZM78.4854 15.8354V11.0726C78.4854 10.8801 78.3272 10.7233 78.1329 10.7233H60.2505C60.0563 10.7233 59.8981 10.8801 59.8981 11.0726V40.7398C59.8981 40.9324 60.0563 41.0821 60.2505 41.0821H65.0772C65.2714 41.0821 65.4297 40.9252 65.4297 40.7398V28.6334C65.4297 28.4409 65.5879 28.284 65.7821 28.284H74.7881C74.9823 28.284 75.1405 28.1272 75.1405 27.9418V23.1791C75.1405 22.9866 74.9823 22.8368 74.7881 22.8368H65.7821C65.5879 22.8368 65.4297 22.68 65.4297 22.4946V16.5269C65.4297 16.3344 65.5879 16.1847 65.7821 16.1847H78.1401C78.3343 16.1847 78.4926 16.0279 78.4926 15.8354M139.635 21.0187C139.635 20.869 139.765 20.7407 139.916 20.7407H144.836C144.994 20.7407 145.116 20.8619 145.116 21.0187V40.8183C145.116 40.968 144.994 41.0963 144.836 41.0963H139.916C139.765 41.0963 139.635 40.9751 139.635 40.8183V39.3281C137.902 40.9038 135.88 40.9395 134.075 40.968H133.765C130.816 40.968 128.313 40.0554 126.522 38.3228C124.637 36.4976 123.637 33.8239 123.637 30.5941C123.637 24.384 127.658 20.3699 133.873 20.3699H133.967C135.931 20.3699 137.952 20.5696 139.621 21.8672V21.0259L139.635 21.0187ZM138.571 34.1733C139.405 33.2107 139.772 31.9202 139.772 30.5228C139.772 27.9775 138.189 25.318 134.398 25.318C131.269 25.318 129.169 27.4356 129.169 30.587C129.169 33.7384 131.269 35.8916 134.398 35.8916C135.995 35.8916 137.635 35.2427 138.571 34.1733ZM188.463 37.51C188.384 37.6241 188.391 37.7738 188.492 37.8737C191.426 40.7755 194.649 41.1748 197.418 41.1748C201.332 41.1748 204.266 39.6989 205.46 37.1322C205.827 36.3479 206.014 35.4994 206.014 34.6011C206.014 29.3963 201.454 28.4338 197.483 28.1842C194.311 27.9846 194.311 26.8866 194.311 26.5301C194.311 25.2111 196.455 25.0685 197.375 25.0685C199.159 25.0685 200.476 25.4963 201.591 26.4445C201.713 26.5444 201.885 26.5372 201.986 26.4232L204.792 23.2076C204.892 23.0935 204.878 22.9153 204.763 22.8155C202.713 21.1186 200.526 20.427 197.296 20.427C195.253 20.427 193.239 20.9261 191.765 21.7888C189.858 22.9081 188.851 24.605 188.851 26.6941C188.851 30.316 191.786 32.5263 197.116 32.9256C200.13 33.0967 200.519 33.9594 200.519 34.6938C200.519 35.7775 199.066 36.3479 197.627 36.3479H197.505C195.181 36.3051 192.944 35.4566 191.455 34.0663C191.333 33.9522 191.139 33.9665 191.038 34.102L188.463 37.5243V37.51ZM112.804 20.5125C117.876 20.5125 121.285 24.3769 121.285 30.1307V40.8111C121.285 40.9609 121.163 41.0892 121.005 41.0892H116.034C115.883 41.0892 115.754 40.968 115.754 40.8111V30.1663C115.754 27.9275 114.653 25.5462 111.567 25.5462H111.466C109.107 25.589 107.114 27.6424 107.114 30.038V40.8111C107.114 40.9609 106.992 41.0892 106.834 41.0892H101.907C101.756 41.0892 101.626 40.968 101.626 40.8111V21.0544C101.626 20.9047 101.748 20.7763 101.907 20.7763H106.669C106.82 20.7763 106.949 20.8975 106.949 21.0544V22.8155C108.812 21.2255 110.646 20.5125 112.804 20.5125Z" fill="white"/>
<path d="M36.5199 27.6351C36.6134 27.6779 36.7285 27.6494 36.786 27.5638L43.0513 18.017C43.1304 17.8958 43.0585 17.7532 42.9218 17.7033C33.9015 14.6374 25.4566 20.5267 12.5808 20.8475C12.2499 20.8475 11.9046 21.2325 12.1348 21.6532L26.0393 42.8145C26.2407 43.171 26.7227 42.95 26.6651 42.622L23.6727 29.2251C23.6511 29.1039 23.7231 28.9969 23.8382 28.9613C24.9244 28.5691 32.7938 25.9311 36.5199 27.6422M51.5393 5.01929L46.389 12.912C46.2811 13.076 46.0653 13.1544 45.8926 13.0689C34.0022 7.1725 20.2775 18.017 8.1713 15.4288C8.0562 15.4075 7.9555 15.3433 7.89795 15.2506C7.89076 15.2363 2.03546 6.35257 0.0860946 3.38656C-0.165669 3.01581 0.14364 2.4882 0.639974 2.57376C1.69738 2.80904 6.2507 3.80722 9.78977 4.05676C28.1613 5.03355 38.1168 -5.83231 51.4314 4.46316C51.6041 4.5915 51.6472 4.82678 51.5321 5.00503" fill="white"/>
</g>
<defs>
<clipPath id="clip0_141_1109">
<rect width="206" height="43" fill="white"/>
</clipPath>
</defs>
</svg>