<svg width="476" height="84" viewBox="0 0 476 84" fill="none" xmlns="http://www.w3.org/2000/svg">
<g clip-path="url(#clip0_1755_39142)">
<mask id="mask0_1755_39142" style="mask-type:luminance" maskUnits="userSpaceOnUse" x="0" y="-1" width="476" height="126">
<path d="M475.192 -0.00195312H0V124.063H475.192V-0.00195312Z" fill="white"/>
</mask>
<g mask="url(#mask0_1755_39142)">
<path d="M288.11 67.7839H287.973V84.2584H281.196V37.087H287.973V41.2056H288.11C290.043 38.7344 293.437 36.0547 298.974 36.0547C307.968 36.0547 314.819 43.0616 314.819 54.5938C314.819 66.126 307.968 73.0599 298.974 73.0599C293.437 73.0599 290.053 70.5887 288.11 67.7734V67.7839ZM297.871 67.5128C304.512 67.5128 307.695 61.4651 307.695 54.6042C307.695 47.7433 304.512 41.6957 297.871 41.6957C291.777 41.6957 288.047 46.638 288.047 54.6042C288.047 62.5704 291.787 67.5128 297.871 67.5128Z" fill="white"/>
<path d="M318.118 63.0496C318.118 55.219 324.065 52.8833 332.86 51.2359C338.397 50.2036 341.781 49.5154 341.781 46.085C341.781 43.5408 340.257 41.4137 335.066 41.4137C328.909 41.4137 327.039 43.3323 326.692 48.0035H319.778C320.125 41.2782 324.549 35.9917 335.35 35.9917C342.611 35.9917 348.432 39.0155 348.432 48.0765V64.1444C348.432 66.6886 348.779 67.992 350.092 67.992C350.302 67.992 350.512 67.992 350.922 67.919V72.0376C349.745 72.3087 348.568 72.4547 347.465 72.4547C344.145 72.4547 342.275 71.1513 341.928 67.1683H341.791C339.438 70.8073 335.424 73.0699 329.687 73.0699C322.626 73.0699 318.129 69.0243 318.129 63.0496H318.118ZM331.189 67.6479C337.284 67.6479 341.781 64.5615 341.781 58.4513V53.436C340.677 54.4682 337.63 55.219 334.026 55.9801C327.795 57.221 325.242 58.931 325.242 62.57C325.242 65.8649 326.976 67.6479 331.189 67.6479Z" fill="white"/>
<path d="M355.829 62.226V42.6546H350.712V37.097H355.829V25.8359H362.607V37.097H369.384V42.6546H362.607V62.4345C362.607 66.1465 363.647 66.9702 366.547 66.9702C367.65 66.9702 368.207 66.8972 369.457 66.6991V72.1211C367.661 72.4652 366.62 72.5382 365.097 72.5382C359.349 72.5382 355.829 70.3381 355.829 62.2364V62.226Z" fill="white"/>
<path d="M385.903 54.5308C385.903 43.5408 392.544 35.9917 403.335 35.9917C414.126 35.9917 420.073 42.9986 420.073 53.8426C420.073 54.8019 420.073 55.8342 420 56.3868H392.88C393.017 62.2259 396.474 67.6479 403.472 67.6479C409.702 67.6479 412.056 63.6648 412.739 61.3292H419.59C417.793 68.0545 412.602 73.1429 403.335 73.1429C392.124 73.1429 385.903 65.2497 385.903 54.5308ZM412.96 51.1003C412.96 45.6053 409.156 41.4867 403.135 41.4867C397.461 41.4867 393.311 45.3342 392.891 51.1003H412.96Z" fill="white"/>
<path d="M440.75 41.831C434.939 41.831 431.199 45.3345 431.199 50.621V72.1109H424.421V37.0972H431.199V41.487H431.335C433.206 38.8072 436.873 36.0649 442.956 36.0649C449.46 36.0649 454.714 39.7769 454.714 47.8057V72.1109H447.863V49.6617C447.863 44.9904 445.783 41.831 440.739 41.831H440.75Z" fill="white"/>
<path d="M461.744 62.226V42.6546H456.626V37.097H461.744V25.8359H468.521V37.097H475.298V42.6546H468.521V62.4345C468.521 66.1465 469.561 66.9702 472.461 66.9702C473.564 66.9702 474.121 66.8972 475.372 66.6991V72.1211C473.575 72.4652 472.535 72.5382 471.011 72.5382C465.263 72.5382 461.744 70.3381 461.744 62.2364V62.226Z" fill="white"/>
<path d="M262.084 34.8031C253.384 32.2067 243.854 38.0875 240.334 47.9827C240.208 48.16 240.082 48.3477 240.008 48.5666C235.753 60.0363 229.595 66.9702 222.188 68.6176C217.533 69.6499 214.034 68.5238 211.512 65.1767C210.987 64.4781 210.514 63.7065 210.104 62.8411C215.579 57.7006 219.908 49.3695 222.986 38.0354C224.51 32.4257 226.948 16.5038 223.659 12.2392C222.377 10.5708 220.633 9.73669 218.731 9.87224C215.179 10.1329 212.3 13.6781 211.155 15.7322C202.445 31.3517 201.016 49.943 204.525 61.3396C196.571 67.1891 189.773 69.7437 184.298 68.9409C180.863 68.4404 178.036 66.6052 175.64 63.3416C175.336 62.9349 175.052 62.4657 174.789 61.934C177.132 59.0666 179.171 55.8759 181.062 52.6436C184.015 47.5865 190.109 32.4466 190.109 17.901C190.109 4.84645 186.494 1.58282 183.468 1.13446C178.877 0.45671 174.38 6.22281 171.143 16.9417C166.394 32.7072 165.827 50.7146 169.304 61.0164C164.639 66.0109 159.764 68.3778 153.67 68.9304C148.563 69.3892 144.213 67.3768 141.313 63.2582C146.314 58.5348 153.302 49.4738 152.966 41.4554C152.808 37.6079 150.686 34.6884 147.439 33.8542C143.698 32.8845 139.548 34.8969 137.1 38.8383C132.739 45.8765 132.119 54.8541 135.282 62.1112C129.965 65.5104 122.978 69.4622 118.134 68.9304C118.102 68.9304 118.081 68.9304 118.05 68.9304C117.703 68.8887 117.367 68.8262 117.052 68.7323C117.031 68.7323 117.01 68.7323 116.989 68.7219C116.663 68.6281 116.348 68.5029 116.053 68.357C116.032 68.357 116.022 68.3465 116.001 68.3361C115.77 68.2214 115.57 68.065 115.36 67.919C115.244 67.8356 115.129 67.773 115.013 67.6792C112.765 65.6772 112.082 61.3501 113.038 55.1669C113.101 54.7602 113.185 54.2702 113.279 53.7175C114.215 48.3372 116.169 37.1491 108.961 34.7405C103.297 32.8532 96.825 37.7539 89.743 49.2965C88.5032 51.2463 86.9691 54.437 85.351 57.8257C83.964 60.7244 82.1988 64.3947 80.8223 66.6991C81.0114 65.427 81.3372 63.6857 81.9046 61.2979C83.197 55.8342 86.5383 45.7722 88.3876 40.6943C88.5032 40.371 99.5464 7.90155 94.8076 2.37527C92.8112 0.0187783 90.8883 -0.168906 89.6169 0.0813402C85.372 0.915496 83.0709 7.3802 79.3618 18.7247C78.1219 22.5097 76.8505 26.4198 75.4321 30.0692C69.2853 45.8869 65.9124 52.2786 61.0896 59.859C59.9022 61.7254 53.6714 70.922 47.4826 68.5968C44.8768 67.6166 43.5844 64.7701 42.0923 61.4752C40.138 57.148 37.7003 51.7677 31.0807 50.7458C24.8813 49.797 21.2668 55.4484 18.0621 60.4221C15.6244 64.2279 13.0921 68.1588 9.8979 68.8575C8.12216 69.2432 6.07323 68.6802 3.62502 67.1162C2.53226 66.4175 1.06124 66.7304 0.357248 67.8252C-0.346743 68.92 -0.0315232 70.3694 1.07175 71.068C4.63373 73.3306 7.84897 74.1126 10.9066 73.4349C16.0237 72.3192 19.2179 67.3351 22.0444 62.9349C25.2596 57.93 27.4346 54.9166 30.3451 55.3754C34.1488 55.9593 35.6829 58.785 37.7633 63.3833C39.4445 67.0953 41.3463 71.3078 45.8014 72.9761C55.1739 76.49 62.9178 65.7294 65.0718 62.351C70.7143 53.4777 74.1607 46.3248 79.8241 31.7375C81.2952 27.963 82.5875 23.9903 83.8484 20.1532C85.7503 14.3454 88.5977 5.60762 90.4575 4.70048C90.5626 4.76304 90.7833 4.90901 91.109 5.27396C92.2228 7.94325 88.6608 26.0131 83.9115 39.026C81.9676 44.3646 78.6158 54.4474 77.2708 60.151C75.2639 68.6281 75.369 71.9334 77.6491 73.2576C78.143 73.5391 78.6578 73.6851 79.1937 73.6851C80.2444 73.6851 81.3897 73.1325 82.5875 72.0272C84.4578 70.3172 86.5698 66.063 89.5959 59.7652C91.151 56.512 92.622 53.4464 93.7358 51.6947C101.847 38.4838 106.271 38.7236 107.427 39.1094C110.8 40.2355 109.203 49.3904 108.604 52.8417C108.499 53.4256 108.415 53.9469 108.341 54.3849C107.112 62.3198 108.288 67.9399 111.84 71.0992C111.892 71.1514 111.956 71.1827 112.008 71.2244C112.05 71.2556 112.082 71.2974 112.113 71.3286C112.344 71.5163 112.586 71.6936 112.828 71.85C112.933 71.923 113.038 71.9855 113.143 72.0481C113.448 72.2358 113.763 72.413 114.078 72.5694C114.152 72.6111 114.236 72.6424 114.32 72.6737C114.666 72.8301 115.013 72.9657 115.37 73.0804C115.423 73.0908 115.465 73.1116 115.507 73.1325C115.896 73.2472 116.285 73.341 116.684 73.414C116.789 73.4349 116.894 73.4557 116.999 73.4766C117.325 73.5287 117.65 73.56 117.987 73.5809C119.636 73.7164 121.423 73.5496 123.314 73.0491C123.387 73.0282 123.461 72.9969 123.535 72.9657C128.221 71.7457 133.18 68.9617 137.604 66.1464C141.481 71.4642 147.397 74.1543 154.09 73.5496C161.445 72.8927 166.972 69.8063 171.437 65.5208C171.553 65.6981 171.679 65.8753 171.805 66.0526C174.936 70.3276 178.908 72.851 183.594 73.5391C184.467 73.6643 185.37 73.7373 186.284 73.7373C192.179 73.7373 198.914 71.068 206.353 65.7815C206.774 66.574 207.236 67.2934 207.73 67.9503C211.386 72.7988 216.745 74.5923 223.228 73.1534C229.595 71.7353 235.112 67.3768 239.504 60.3699C240.87 66.3967 244.852 71.2974 250.526 72.9865C251.913 73.4036 253.331 73.6017 254.729 73.6017C262.431 73.6017 269.944 67.6584 272.644 58.7433C275.828 48.2017 271.099 37.4515 262.095 34.7613L262.084 34.8031ZM139.085 58.8789C137.142 53.2692 137.835 46.6168 141.134 41.2886C142.448 39.1719 144.213 38.3065 145.558 38.3065C145.8 38.3065 146.031 38.3378 146.241 38.3899C147.87 38.807 148.185 40.6109 148.227 41.6431C148.458 47.2215 143.33 54.5413 139.075 58.8789H139.085ZM172.972 56.512C170.965 47.3988 171.385 32.4987 175.672 18.2868C178.561 8.694 181.829 5.77445 182.722 5.77445C182.743 5.77445 182.754 5.77445 182.775 5.77445C183.206 5.83701 185.37 8.1935 185.37 17.8906C185.37 31.3517 179.602 45.7722 176.964 50.2871C175.609 52.6018 174.285 54.6768 172.961 56.512H172.972ZM208.402 57.8257C205.943 46.9192 208.528 30.1422 215.295 18.0053C216.262 16.2744 218.069 14.6269 219.088 14.5539C219.109 14.5539 219.13 14.5539 219.151 14.5539C219.288 14.5539 219.54 14.6061 219.908 15.0961C221.169 16.8896 220.601 28.8597 218.437 36.8259C215.936 46.0329 212.511 53.1858 208.413 57.8362L208.402 57.8257ZM268.115 57.4295C265.678 65.4895 258.386 70.4632 251.882 68.5342C245.367 66.5948 242.057 58.4618 244.495 50.4018C246.575 43.52 252.186 38.88 257.839 38.88C258.806 38.88 259.772 39.0155 260.729 39.2971C267.243 41.2365 270.553 49.3695 268.115 57.4295Z" fill="white"/>
<path d="M374.671 37.0977H381.448V72.1113H374.671V37.0977Z" fill="white"/>
<path d="M381.448 26.9834H374.671V32.6661H381.448V26.9834Z" fill="white"/>
</g>
</g>
<defs>
<clipPath id="clip0_1755_39142">
<rect width="476" height="84" fill="white"/>
</clipPath>
</defs>
</svg>
