<svg width="90" height="26" viewBox="0 0 90 26" fill="none" xmlns="http://www.w3.org/2000/svg">
<g clip-path="url(#clip0_2003_1788)">
<path d="M86.4774 19.1981V12.6204C86.4774 10.6486 85.2835 9.45573 83.7276 9.45573C83.028 9.45573 82.2622 9.63449 81.6267 10.0505L83.348 7.06897C83.6813 7.00056 84.0035 6.96414 84.2926 6.96414C87.3536 6.96414 89.1698 9.01324 89.1445 12.4637V19.197H86.4774V19.1981ZM77.8054 8.50455V19.1981H80.4714V6.96524L77.8054 8.50455Z" fill="white"/>
<path d="M3.53239 1.3233H0.866455V19.1981H3.53239V1.3233ZM16.2529 1.3233H13.587V19.1981H16.2529V1.3233Z" fill="white"/>
<path d="M12.2286 9.68743L6.01178 6.09791C5.5704 5.84301 5.01868 6.16191 5.01868 6.6717V13.8507C5.01868 14.3605 5.5704 14.6794 6.01178 14.4245L12.2286 10.835C12.67 10.579 12.67 9.94232 12.2286 9.68743Z" fill="#666666"/>
<path d="M37.1258 14.3473L38.675 17.0309L33.9467 25.2196H30.8483L35.5765 17.0309L29.9843 7.34482H33.0827L37.1258 14.3473ZM44.2673 7.34482H41.1688L37.1258 14.3473H40.2243L44.2673 7.34482Z" fill="white"/>
<path d="M63.1408 8.91724L63.1397 11.6052H55.2754L56.8246 8.92165L63.1408 8.91724ZM54.1896 16.9029C50.5217 16.9029 47.5479 13.9291 47.5479 10.2612C47.5479 6.59338 50.5217 3.61958 54.1896 3.61958C55.1352 3.61958 56.0357 3.8182 56.8511 4.17682L58.1576 1.91365C56.9626 1.29462 55.6152 0.944824 54.1896 0.944824C49.0442 0.944824 44.8721 5.11586 44.8721 10.2623C44.8721 15.4088 49.0431 19.5799 54.1896 19.5799C57.6092 19.5799 60.5819 17.5903 62.0947 14.6651L60.3292 11.6074C59.741 14.6254 57.2119 16.9029 54.1896 16.9029Z" fill="white"/>
<path d="M26.6959 16.2099C26.0383 16.7528 25.1941 17.0794 24.2739 17.0794C22.5878 17.0794 21.1566 15.9826 20.6568 14.4643H30.4675C30.5414 14.0781 30.5801 13.6808 30.5801 13.2725C30.5801 9.79006 27.7563 6.96634 24.2739 6.96634C22.4841 6.96634 20.8675 7.71227 19.7199 8.90951L21.0595 11.2312C21.7348 10.1696 22.9221 9.46565 24.2739 9.46565C25.9577 9.46565 27.3867 10.5592 27.8888 12.0753H18.0813C18.0074 12.4626 17.9677 12.8632 17.9677 13.2725C17.9677 16.755 20.7914 19.5788 24.2739 19.5788C25.6477 19.5788 26.9188 19.1396 27.9539 18.3936L26.6959 16.2099Z" fill="white"/>
<path d="M72.5928 16.2099C71.9351 16.7528 71.091 17.0794 70.1707 17.0794C68.4846 17.0794 67.0535 15.9826 66.5536 14.4643H76.3644C76.4383 14.0781 76.4769 13.6808 76.4769 13.2725C76.4769 9.79006 73.6532 6.96634 70.1707 6.96634C68.3809 6.96634 66.7644 7.71227 65.6168 8.90951L66.9564 11.2312C67.6317 10.1696 68.819 9.46565 70.1707 9.46565C71.8546 9.46565 73.2835 10.5592 73.7856 12.0753H63.9782C63.9042 12.4626 63.8645 12.8632 63.8645 13.2725C63.8645 16.755 66.6882 19.5788 70.1707 19.5788C71.5445 19.5788 72.8157 19.1396 73.8507 18.3936L72.5928 16.2099Z" fill="white"/>
</g>
<defs>
<clipPath id="clip0_2003_1788">
<rect width="90" height="25" fill="white"/>
</clipPath>
</defs>
</svg>
