<svg fill="none" height="56" viewBox="0 0 136 56" width="136" xmlns="http://www.w3.org/2000/svg"><g fill="#fff"><path clip-rule="evenodd" d="m28 56c15.464 0 28-12.536 28-28s-12.536-28-28-28-28 12.536-28 28 12.536 28 28 28zm-8.178-33.9161c-.258-1.236-.5407-2.5911.0314-3.6874 1.6453-3.1528 5.1329-2.8448 6.8916-1.0858 1.0078 1.008 1.5799 2.4851 1.4286 3.9291-.1106 1.049-.5542 2.0063-.9985 2.9654l-.0014.0029c-.2027.4376-.4056.8756-.577 1.3227-.5469 1.4286-.6984 3.2569.3643 4.3281.8341.8401 2.149.9202 3.2843.6622.5394-.1227 1.0625-.3086 1.5856-.4944l.0015-.0006.0015-.0005c.5777-.2052 1.1553-.4102 1.7538-.5302 2.5147-.5037 5.3687.7932 6.401 3.226 1.0322 2.4327-.2137 5.7312-2.6715 6.479-1.4564.4429-2.9345.0201-4.4301-.4078l-.0023-.0006c-1.0206-.292-2.0493-.5862-3.0847-.609-1.6605-.0368-3.2293.6221-4.7842 1.2752-.3668.1541-.7333.3079-1.0996.4522-1.919.7555-4.1652 1.2391-5.9551.1956-1.2667-.7378-2.0852-2.1725-2.2699-3.6673-.1848-1.4948.2233-3.0296.9728-4.3203.4083-.7033.9193-1.3539 1.4282-2.0018l.0007-.0009c.9375-1.1936 1.8679-2.3781 2.1352-3.8648.2149-1.1949-.0401-2.4137-.2899-3.6072-.0227-.1087-.0454-.2176-.0677-.3258zm26.178 14.3867c0 1.1695-.9481 2.1176-2.1177 2.1176-1.1695 0-2.1176-.9481-2.1176-2.1176 0-1.1696.9481-2.1177 2.1176-2.1177 1.1696 0 2.1177.9481 2.1177 2.1177zm-32.1176-7.0588c2.1441 0 3.8823-1.7382 3.8823-3.8823 0-2.1443-1.7382-3.8825-3.8823-3.8825-2.1442 0-3.8824 1.7382-3.8824 3.8825 0 2.1441 1.7382 3.8823 3.8824 3.8823z" fill-rule="evenodd"/><path d="m72.51 37.2897c.34.34.8199.51 1.4399.51h10.5895c.54 0 .95-.14 1.23-.42.3-.3.4499-.7099.4499-1.2299s-.1499-.92-.4499-1.2c-.28-.28-.69-.42-1.23-.42h-8.6996v-16.0193c0-.64-.17-1.12-.5099-1.44-.32-.34-.79-.51-1.41-.51s-1.0999.17-1.4399.51c-.32.32-.48.8-.48 1.44v17.3093c0 .62.17 1.1099.51 1.4699z"/><g clip-rule="evenodd" fill-rule="evenodd"><path d="m91.2784 37.1697c1.1999.62 2.6299.93 4.2898.93.78 0 1.6199-.1 2.5199-.3.92-.22 1.7299-.55 2.4299-.99.36-.2199.61-.4799.75-.7799.16-.3.22-.59.18-.87-.04-.3-.16-.55-.36-.75-.18-.1999-.43-.3099-.75-.3299-.32-.04-.69.06-1.11.3-.5799.3199-1.1999.5499-1.8599.6899-.6399.12-1.2199.18-1.7399.18-1.4999 0-2.6399-.4-3.4199-1.1999-.6036-.6513-.9675-1.5613-1.0917-2.7299h9.0714c.46 0 .81-.09 1.05-.27.26-.2.39-.48.39-.84 0-1.1399-.16-2.1599-.48-3.0599-.3-.92-.75-1.6999-1.35-2.3399-.58-.64-1.2899-1.1299-2.1299-1.4699-.82-.34-1.7499-.51-2.7899-.51-1.4199 0-2.6899.33-3.8098.9899-1.1.64-1.9699 1.53-2.6099 2.6699-.62 1.14-.93 2.4699-.93 3.9899 0 1.5599.32 2.9099.96 4.0498.66 1.14 1.5899 2.02 2.7899 2.6399zm-.1534-8.0096c.0687-.5683.1998-1.0783.3934-1.53.32-.72.7699-1.27 1.3499-1.6499.6-.4 1.32-.6 2.1599-.6.76 0 1.39.17 1.8899.51.52.3199.91.7899 1.17 1.4099.2331.5161.3691 1.136.4082 1.86z"/><path d="m109.427 38.0997c-1.06 0-2.01-.2-2.85-.6-.819-.42-1.469-.9799-1.949-1.6799-.46-.7-.69-1.4899-.69-2.3699 0-1.08.28-1.9299.84-2.5499.56-.64 1.47-1.1 2.729-1.3799 1.26-.28 2.95-.42 5.07-.42h1.05v-.6301c0-.9999-.22-1.7199-.66-2.1599-.44-.4399-1.18-.6599-2.22-.6599-.58 0-1.21.07-1.89.21-.66.14-1.36.3799-2.1.7199-.38.18-.719.23-1.019.15-.28-.08-.5-.24-.66-.48-.16-.2599-.24-.5399-.24-.8399s.08-.59.24-.87c.16-.3.43-.52.81-.66.919-.3799 1.799-.6499 2.639-.8099.86-.16 1.64-.24 2.34-.24 1.44 0 2.62.22 3.54.66.94.4399 1.64 1.1099 2.1 2.0099.46.8799.69 2.0199.69 3.4198v7.1998c0 .6199-.15 1.0999-.45 1.4399-.3.32-.73.48-1.29.48s-1-.16-1.32-.48c-.3-.34-.45-.82-.45-1.4399v-.6313c-.15.3721-.35.7126-.6 1.0213-.4.4999-.91.8899-1.53 1.1699s-1.33.42-2.13.42zm3.75-4.3198c.3-.54.45-1.16.45-1.8599v-.66h-1.02c-1.24 0-2.23.06-2.97.18s-1.27.33-1.59.6299c-.3.28-.45.68-.45 1.2 0 .66.23 1.1999.69 1.6199s1.1.63 1.92.63c.66 0 1.24-.15 1.74-.45.52-.32.93-.7499 1.23-1.2899z"/><path d="m121.483 42.9595c.32.32.78.48 1.38.48s1.06-.16 1.38-.48c.34-.32.51-.79.51-1.41v-5.9321c.35.6172.85 1.1446 1.5 1.5823.92.6 1.99.9 3.21.9 1.3 0 2.43-.31 3.39-.93.96-.6199 1.71-1.4999 2.25-2.6399.54-1.1599.81-2.5198.81-4.0798 0-1.58-.27-2.9299-.81-4.0499-.54-1.1399-1.3-2.0199-2.28-2.6399-.96-.6199-2.08-.9299-3.36-.9299-1.24 0-2.33.31-3.27.9299-.659.4442-1.159.991-1.5 1.6405v-.6205c0-.62-.16-1.0899-.48-1.4099s-.78-.48-1.38-.48c-.58 0-1.03.16-1.35.48s-.48.7899-.48 1.4099v16.7693c0 .62.16 1.09.48 1.41zm8.88-8.2497c-.56.36-1.21.54-1.95.54-1.12 0-2.02-.4-2.7-1.1999-.68-.82-1.02-2.02-1.02-3.5999 0-1.0599.15-1.94.45-2.6399.32-.72.76-1.25 1.32-1.59.56-.3599 1.21-.5399 1.95-.5399 1.12 0 2.02.3999 2.7 1.1999.68.78 1.02 1.9699 1.02 3.5699 0 1.06-.16 1.9499-.48 2.6699-.3.7-.73 1.23-1.29 1.5899z"/></g></g></svg>