<svg width="111" height="34" viewBox="0 0 111 34" fill="none" xmlns="http://www.w3.org/2000/svg">
<path d="M12.3765 4.311C5.98439 4.311 0.754456 9.54094 0.754456 15.9331C0.754456 22.3252 5.98439 27.5552 12.3765 27.5552C18.7687 27.5552 23.9986 22.3575 23.9986 15.9331C23.9986 9.50858 18.8009 4.311 12.3765 4.311ZM12.3765 23.3905C8.40569 23.3905 5.20952 20.1299 5.20952 15.9331C5.20952 11.7362 8.40569 8.47552 12.3765 8.47552C16.3474 8.47552 19.5434 11.7362 19.5434 15.9331C19.5434 20.1299 16.3474 23.3905 12.3765 23.3905Z" fill="white"/>
<path d="M35.7495 10.7677C33.6512 10.7677 31.6173 11.6071 30.5519 13.0276V11.0905H26.355V33.689H30.5519V25.5213C31.6173 26.8449 33.5865 27.5551 35.7495 27.5551C40.2692 27.5551 43.8205 24.0039 43.8205 19.1614C43.8205 14.3189 40.2692 10.7677 35.7495 10.7677ZM35.0393 23.9071C32.6504 23.9071 30.5196 22.0347 30.5196 19.1614C30.5196 16.2881 32.6504 14.4157 35.0393 14.4157C37.4283 14.4157 39.559 16.2881 39.559 19.1614C39.559 22.0347 37.4283 23.9071 35.0393 23.9071Z" fill="white"/>
<path d="M53.6996 10.7677C49.1154 10.7677 45.4996 14.3512 45.4996 19.1614C45.4996 23.9716 48.6634 27.5551 53.8288 27.5551C58.0579 27.5551 60.7697 25.0047 61.6091 22.1314H57.5091C56.9926 23.326 55.5398 24.1653 53.7965 24.1653C51.6335 24.1653 49.9871 22.648 49.5996 20.485H61.8028V18.8386C61.8028 14.448 58.7359 10.7677 53.6996 10.7677ZM49.6319 17.515C50.0839 15.4811 51.7626 14.1574 53.7965 14.1574C55.9595 14.1574 57.6059 15.5779 57.7997 17.515H49.6319Z" fill="white"/>
<path d="M72.9726 10.7677C71.1002 10.7677 69.1308 11.6071 68.2269 12.9952V11.0905H64.0301V27.2322H68.2269V18.548C68.2269 16.0299 69.5828 14.3834 71.7781 14.3834C73.8119 14.3834 74.9093 15.9331 74.9093 18.0961V27.2322H79.1063V17.4181C79.1063 13.4149 76.6526 10.7677 72.9726 10.7677Z" fill="white"/>
<path d="M89.8557 4.63436L80.7194 27.2329H85.2069L87.1436 22.2935H97.5393L99.476 27.2329H104.028L94.9564 4.63436H89.8557ZM88.5964 18.5486L92.3415 9.08953L96.0535 18.5486H88.5964Z" fill="white"/>
<path d="M110 4.63436H105.739V27.2329H110V4.63436Z" fill="white"/>
</svg>
