<svg xmlns="http://www.w3.org/2000/svg" fill="none" viewBox="0 0 644 78"><path fill="#fff" d="M108.303 73.093h17.7l4.746-24.361h13.744c15.227 0 23.73-8.517 26.301-21.49 2.472-12.972-8.009-23.47-23.533-23.47h-25.51zm25.214-38.82 3.164-16.042h8.603c5.932 0 9.492 4.753 8.701 9.011-.791 4.259-4.252 7.032-9.888 7.032zM171.307 73.093h47.758l2.966-15.052h-30.059l10.481-54.269h-17.699zM277.572 73.093h18.193l-12.36-69.32h-16.809l-39.254 69.32h18.292l7.317-13.567h22.544zM260.861 44.87l9.69-18.024 2.769 18.024zM309.43 73.093h17.699l5.537-28.52 31.047-40.8h-18.786l-18.293 24.36-8.602-24.36H299.74l15.227 40.8zM359.309 73.093h31.147c14.733 0 25.016-7.427 27.191-18.914 2.077-10.795-2.175-16.34-7.712-18.915 4.35-2.179 9.096-7.13 10.382-13.666 1.977-10.002-6.328-17.826-18.886-17.826h-28.674zm25.807-43.77 2.275-11.884h9.492c5.932 0 7.811 2.376 7.119 5.941s-3.461 5.942-8.998 5.942zm-5.537 28.718 2.67-14.062h9.591c7.416 0 10.877 2.574 9.987 7.13-.89 4.555-4.252 6.932-11.668 6.932zM469.417 73.093h18.194l-12.36-69.32h-16.809l-39.255 69.32h18.293l7.317-13.567h22.544zm-16.71-28.223 9.69-18.024 2.768 18.024zM523.424 73.885c18.49 0 32.036-10.1 36.387-25.945h-18.985c-2.571 6.635-7.416 10.893-15.524 10.893-9.789 0-17.204-6.932-14.634-20.4s10.877-20.4 20.567-20.4c8.009 0 13.151 4.258 12.755 10.893h19.479C564.656 13.18 552.592 2.98 534.3 2.98c-19.083 0-36.782 11.29-41.331 34.463-3.757 19.706 10.284 36.442 30.455 36.442M643.661 3.772h-24.818L591.256 29.62l5.043-25.847H578.6l-13.448 69.321h17.699l3.362-17.132 11.371-10.398 10.481 27.53h22.346l-18.094-40.899z"></path><path fill="#DB3236" fill-rule="evenodd" d="M10.824 34.69c0-5.833 3.359-11.664 9.901-16.259 6.526-4.584 15.828-7.59 26.36-7.59 10.53 0 19.833 3.007 26.359 7.59 6.542 4.595 9.901 10.426 9.901 16.26 0 3.357-1.09 6.64-3.222 9.712a5.426 5.426 0 0 0 1.356 7.544 5.407 5.407 0 0 0 7.533-1.358c3.236-4.665 5.157-10.072 5.157-15.899 0-10.332-5.97-19.136-14.51-25.135C71.102 3.545 59.569 0 47.084 0 34.602 0 23.068 3.545 14.51 9.555 5.97 15.554 0 24.358 0 34.69s5.97 19.136 14.51 25.135c8.557 6.01 20.09 9.555 32.575 9.555a.15.15 0 0 1 .15.15v7.137c0 .907.98 1.474 1.765 1.02l22.446-12.979a1.18 1.18 0 0 0 0-2.042L49 49.687a1.177 1.177 0 0 0-1.766 1.021v7.682a.15.15 0 0 1-.15.15c-10.53 0-19.833-3.007-26.359-7.59-6.542-4.596-9.901-10.427-9.901-16.26" clip-rule="evenodd"></path></svg>