<svg xmlns="http://www.w3.org/2000/svg" width="118" height="26" viewBox="0 0 118 26" fill="none">
  <path d="M0 0.5V15.2341L7.07717 25.5H15.2743L10.9799 15.2341H20.6546V0.5H0Z" fill="#ffffff"></path>
  <path
    d="M97.9415 9.39628H101.731V11.0289C102.216 10.0505 103.463 9.12262 104.944 9.12262C106.751 9.12262 108.453 10.038 109.002 11.7086C109.55 10.1017 110.928 9.12262 112.674 9.12262C115.736 9.12262 117.442 11.289 117.442 14.7499V21.8464H113.652V15.3974C113.652 13.5798 113.125 12.5342 111.846 12.5342C110.566 12.5342 109.587 13.5301 109.587 15.7959V21.8464H105.797V15.3974C105.797 13.5798 105.27 12.5342 103.99 12.5342C102.71 12.5342 101.731 13.5301 101.731 15.7959V21.8464H97.9415V9.39628Z"
    fill="#ffffff"></path>
  <path
    d="M82.9578 16.4925V9.39608H86.7473V15.8451C86.7473 17.6626 87.2744 18.7083 88.6799 18.7083C90.0854 18.7083 91.0391 17.737 91.0391 15.4462V9.39572H94.829V21.8455H91.0391V20.2128C90.482 21.3371 89.3326 22.1191 87.701 22.1191C84.589 22.1191 82.9578 19.8784 82.9578 16.4922"
    fill="#ffffff"></path>
  <path d="M79.9962 9.39584H76.2067V21.8456H79.9962V9.39584Z" fill="#ffffff"></path>
  <path d="M79.9965 3.71521H76.181V7.13752H79.9965V3.71521Z" fill="#ffffff"></path>
  <path
    d="M59.9271 15.6209C59.9271 12.0852 62.4619 9.12215 65.7495 9.12215C67.4312 9.12215 68.8024 9.96852 69.3043 10.641V3.71521H73.0942V21.8456H69.3043V20.238C68.7613 21.1859 67.4308 22.1196 65.7495 22.1196C62.4619 22.1196 59.9271 19.1566 59.9271 15.6209ZM69.4641 15.6209C69.4641 13.8283 68.3095 12.5334 66.603 12.5334C64.8964 12.5334 63.7419 13.828 63.7419 15.6209C63.7419 17.4138 64.8964 18.7083 66.603 18.7083C68.3095 18.7083 69.4641 17.4138 69.4641 15.6209Z"
    fill="#ffffff"></path>
  <path
    d="M45.1438 15.6208C45.1438 11.9606 48.1304 9.12207 51.7443 9.12207C55.3582 9.12207 58.3448 11.9602 58.3448 15.6208C58.3448 19.2813 55.3579 22.1195 51.7443 22.1195C48.1307 22.1195 45.1438 19.281 45.1438 15.6208ZM54.53 15.6208C54.53 13.8529 53.3254 12.6327 51.7443 12.6327C50.1632 12.6327 48.9586 13.8529 48.9586 15.6208C48.9586 17.3886 50.1632 18.6088 51.7443 18.6088C53.3254 18.6088 54.53 17.3886 54.53 15.6208Z"
    fill="#ffffff"></path>
  <path
    d="M38.1161 16.2433H34.9727V21.8456H30.9819V4.16742H38.1161C41.7051 4.16742 44.3903 6.80668 44.3903 10.2179C44.3903 13.6291 41.7048 16.2433 38.1161 16.2433ZM37.9401 7.90202H34.9723V12.5334H37.9401C39.3705 12.5334 40.3995 11.5125 40.3995 10.2179C40.3995 8.92331 39.3705 7.90202 37.9401 7.90202Z"
    fill="#ffffff"></path>
</svg>