<svg xmlns="http://www.w3.org/2000/svg" width="124" height="24" fill="none">
<path fill="#fff" fill-rule="evenodd" d="M12 24a12 12 0 1 0 0-24 12 12 0 0 0 0 24Zm4.49-13.89a2.6 2.6 0 0 0-.75-1.82 2.62 2.62 0 0 0-1.93-.8c-1.17 0-2.44.77-3.02 2.63-.6 1.9-.46 4.98 1.63 9.18a1.5 1.5 0 1 1-2.69 1.34C7.43 16 7.02 12.1 7.93 9.22 8.85 6.3 11.14 4.5 13.8 4.5a5.55 5.55 0 0 1 5.22 3.43 5.6 5.6 0 0 1-5.29 7.81c-.4 0-.8-.04-1.2-.11-.4-1.32-.56-2.43-.56-3.33.66.32 1.26.44 1.77.44 1.6 0 2.73-1.15 2.74-2.6v-.03Zm-10.41.6c-.51-.77-1-1.63-1.45-2.6a1.5 1.5 0 0 1 2.7-1.28l.02.02a9.36 9.36 0 0 0-.85 1.92c-.2.62-.34 1.26-.42 1.94Z" clip-rule="evenodd"></path>
<path fill="#fff" fill-rule="evenodd" d="M32 7a1 1 0 0 1 1-1h3c1.14 0 2.16.4 2.9 1.17a4.2 4.2 0 0 1 1.1 2.96c0 1.15-.38 2.16-1.15 2.87-.75.7-1.77 1-2.85 1h-2v3a1 1 0 1 1-2 0V7Zm2 5h2c.72 0 1.2-.2 1.5-.47.28-.26.5-.69.5-1.4a2.2 2.2 0 0 0-.55-1.58A1.92 1.92 0 0 0 36 8h-2v4Zm14-4a4 4 0 1 0 0 8 4 4 0 0 0 0-8Zm-6 4a6 6 0 1 1 12 0 6 6 0 0 1-12 0Zm14-5a1 1 0 0 1 1-1h3c1.14 0 2.16.4 2.9 1.17a4.2 4.2 0 0 1 1.1 2.96c0 1.15-.38 2.16-1.15 2.87-.75.7-1.77 1-2.85 1h-2v3a1 1 0 1 1-2 0V7Zm2 5h2c.72 0 1.2-.2 1.5-.47.28-.26.5-.69.5-1.4a2.2 2.2 0 0 0-.55-1.58A1.92 1.92 0 0 0 60 8h-2v4Zm9.2-5.11A4.38 4.38 0 0 1 70 6c.89 0 1.69.15 2.3.5a1 1 0 0 1-.98 1.74A2.9 2.9 0 0 0 70 8c-.74 0-1.24.2-1.54.44-.28.23-.46.56-.46 1.06s.18.83.46 1.06c.3.25.8.44 1.54.44 1.06 0 2.06.28 2.8.89.78.63 1.2 1.55 1.2 2.61 0 1.06-.42 1.98-1.2 2.61-.74.61-1.74.89-2.8.89-1.36 0-2.7-.42-3.74-1.58a1 1 0 0 1 1.48-1.34c.59.65 1.33.92 2.26.92.74 0 1.24-.2 1.54-.44.28-.23.46-.56.46-1.06s-.18-.83-.46-1.06c-.3-.25-.8-.44-1.54-.44a4.38 4.38 0 0 1-2.8-.89A3.28 3.28 0 0 1 66 9.5c0-1.06.42-1.98 1.2-2.61ZM74 7a1 1 0 0 1 1-1h8a1 1 0 1 1 0 2h-3v9a1 1 0 1 1-2 0V8h-3a1 1 0 0 1-1-1Zm14.5-1a1 1 0 0 1 .91.59l4.5 10a1 1 0 1 1-1.82.82L91 15h-5l-1.09 2.41a1 1 0 1 1-1.82-.82l4.5-10A1 1 0 0 1 88.5 6Zm-1.6 7h3.2l-1.6-3.56L86.9 13ZM108 7a1 1 0 0 1 1-1h6a1 1 0 0 1 0 2h-5v3h3.8a1 1 0 0 1 0 2H110v3h5a1 1 0 0 1 0 2h-6a1 1 0 0 1-1-1V7Zm-4.78 1.54a4.26 4.26 0 0 0-4.39.14 4.1 4.1 0 0 0-1.47 1.68 3.88 3.88 0 0 0 .57 4.17 4.28 4.28 0 0 0 5.93.49l.14-.15V13h-1.69a1 1 0 1 1 0-2H105a1 1 0 0 1 1 1v3.13c0 .35-.17.63-.23.72l-.27.35c-.18.2-.38.38-.53.5a6.2 6.2 0 0 1-5.8.98 6.15 6.15 0 0 1-2.77-1.86A5.93 5.93 0 0 1 97.74 7a6.24 6.24 0 0 1 6.46-.2 1 1 0 0 1-.98 1.74Z" clip-rule="evenodd"></path>
</svg>