<svg width="106" height="28" viewBox="0 0 106 28" fill="none" xmlns="http://www.w3.org/2000/svg">
<path fill-rule="evenodd" clip-rule="evenodd" d="M82.6783 24.2522V3.60202H76.9248V24.2522H82.6783ZM83.9233 20.3504C83.9233 22.8855 85.9171 24.5944 88.8794 24.5944C91.0441 24.5944 92.8954 23.6545 93.636 22.1734C93.636 22.9425 93.693 23.5976 93.8354 24.2527H99.3611C99.1617 23.5121 99.0192 22.1449 99.0192 20.7493V15.5654C99.0192 11.4923 96.7406 9.66939 91.7846 9.66939C87.3697 9.66939 84.6354 11.5208 84.379 14.8248H89.9901C90.0756 13.6855 90.6452 13.1158 91.7561 13.1158C92.7245 13.1158 93.2656 13.6285 93.2656 14.7109V15.3375L89.392 15.9072C87.3128 16.2204 85.9456 16.7047 85.0911 17.4453C84.2935 18.1289 83.9233 19.0687 83.9233 20.3504ZM93.4651 19.2396C93.4651 20.3789 92.5537 21.1765 91.2434 21.1765C90.332 21.1765 89.7054 20.6353 89.7054 19.8663C89.7054 19.0117 90.389 18.4706 91.8131 18.1858L93.4651 17.8725V19.2396ZM68.0291 24.5944C63.7282 24.5944 60.2248 22.1164 60.2248 17.0749C60.2248 12.0335 63.7282 9.66939 68.0291 9.66939C72.3301 9.66939 75.8335 12.0335 75.8335 17.0749C75.8335 22.1164 72.3301 24.5944 68.0291 24.5944ZM68.0291 20.8632C69.3678 20.8632 70.1654 19.6668 70.1654 17.0749C70.1654 14.483 69.3678 13.4007 68.0291 13.4007C66.6904 13.4007 65.8929 14.483 65.8929 17.0749C65.8929 19.6668 66.6904 20.8632 68.0291 20.8632ZM48.1631 10.0126V13.6584H50.5271V19.5258C50.5271 22.9154 52.521 24.5389 56.708 24.5389C57.5054 24.5389 58.2744 24.4534 59.5562 24.2541V19.8677C59.1859 19.9247 58.8441 19.9532 58.3599 19.9532C57.0212 19.9532 56.2807 19.2126 56.2807 17.9024V13.6584H59.5562V10.0126H56.2807V4.60086L50.5271 6.76556V10.0126H48.1631ZM42.036 13.9133C42.8051 11.0651 44.4286 9.66939 47.0205 9.66939H47.1915V15.1096L47.0254 15.0983C46.671 15.0741 46.3582 15.0527 45.9382 15.0527C44.8273 15.0527 43.9445 15.309 43.3747 15.7932C42.7196 16.3628 42.3779 17.3028 42.3779 18.5845V24.2527H36.6243V10.0112H42.036V13.9133ZM19.782 17.0749C19.782 22.1164 23.2854 24.5944 27.5863 24.5944C31.8872 24.5944 35.3906 22.1164 35.3906 17.0749C35.3906 12.0335 31.8872 9.66939 27.5863 9.66939C23.2854 9.66939 19.782 12.0335 19.782 17.0749ZM29.7225 17.0749C29.7225 19.6668 28.9249 20.8632 27.5863 20.8632C26.2476 20.8632 25.45 19.6668 25.45 17.0749C25.45 14.483 26.2476 13.4007 27.5863 13.4007C28.9249 13.4007 29.7225 14.483 29.7225 17.0749ZM12.6177 4.02985C17.1465 4.02985 20.1088 6.6218 20.1088 10.5809C20.1088 14.8249 17.232 17.4168 12.4754 17.4168H8.63012V24.2527H2.67725V4.02985H12.6177ZM10.9658 13.4292C12.8456 13.4292 13.871 12.5178 13.871 10.8088C13.871 9.07133 12.8741 8.15987 10.9658 8.15987H8.63012V13.4292H10.9658ZM98.424 6.68121V7.36318H99.4091V9.91426H100.154V7.36318H101.127V6.68121H98.424ZM104.953 6.68121H103.968L103.438 8.1967C103.362 8.41139 103.299 8.63871 103.248 8.82816L103.059 8.22196L102.516 6.68121H101.531V9.91426H102.251V8.90393C102.251 8.58819 102.251 8.24721 102.238 7.88097C102.263 7.94412 102.289 8.01989 102.314 8.10829L102.945 9.91426H103.539L104.17 8.10829C104.195 8.01989 104.221 7.94412 104.246 7.88097C104.234 8.24721 104.234 8.58819 104.234 8.90393V9.91426H104.953V6.68121Z" fill="white"/>
</svg>
