<svg width="1683" height="341" viewBox="0 0 1683 341" fill="none" xmlns="http://www.w3.org/2000/svg">
  <g clip-path="url(#clip0_9063_24969)">
    <path fill-rule="evenodd" clip-rule="evenodd"
      d="M124.419 55.296C139.688 55.296 152.066 42.9176 152.066 27.648C152.066 12.3784 139.688 0 124.419 0C109.149 0 96.7705 12.3784 96.7705 27.648C96.7705 42.9176 109.149 55.296 124.419 55.296ZM237.721 170.497C255.157 162.482 267.264 144.863 267.264 124.416C267.264 96.4219 244.57 73.7281 216.576 73.7281C196.13 73.7281 178.511 85.8336 170.497 103.268C162.482 85.8336 144.863 73.7281 124.417 73.7281C96.4233 73.7281 73.7295 96.4219 73.7295 124.416C73.7295 144.863 85.8363 162.482 103.272 170.497C85.8363 178.511 73.7295 196.13 73.7295 216.577C73.7295 244.571 96.4233 267.265 124.417 267.265C144.863 267.265 162.482 255.16 170.497 237.725C178.511 255.16 196.13 267.265 216.576 267.265C244.57 267.265 267.264 244.571 267.264 216.577C267.264 196.13 255.157 178.511 237.721 170.497ZM170.497 195.429C175.553 184.43 184.431 175.552 195.431 170.497C184.431 165.441 175.553 156.563 170.497 145.564C165.44 156.563 156.562 165.441 145.563 170.497C156.562 175.552 165.44 184.43 170.497 195.429ZM235.01 27.6476C235.01 37.8274 226.757 46.0796 216.578 46.0796C206.398 46.0796 198.146 37.8274 198.146 27.6476C198.146 17.4679 206.398 9.21564 216.578 9.21564C226.757 9.21564 235.01 17.4679 235.01 27.6476ZM27.6517 142.848C37.8314 142.848 46.0837 134.596 46.0837 124.416C46.0837 114.237 37.8314 105.984 27.6517 105.984C17.472 105.984 9.21973 114.237 9.21973 124.416C9.21973 134.596 17.472 142.848 27.6517 142.848ZM142.845 313.343C142.845 323.523 134.593 331.775 124.413 331.775C114.234 331.775 105.981 323.523 105.981 313.343C105.981 303.163 114.234 294.911 124.413 294.911C134.593 294.911 142.845 303.163 142.845 313.343ZM313.345 235.008C323.525 235.008 331.777 226.755 331.777 216.576C331.777 206.396 323.525 198.144 313.345 198.144C303.165 198.144 294.913 206.396 294.913 216.576C294.913 226.755 303.165 235.008 313.345 235.008ZM41.4712 27.649C41.4712 35.2838 35.282 41.473 27.6472 41.473C20.0125 41.473 13.8232 35.2838 13.8232 27.649C13.8232 20.0142 20.0125 13.825 27.6472 13.825C35.282 13.825 41.4712 20.0142 41.4712 27.649ZM27.6472 327.168C35.282 327.168 41.4712 320.979 41.4712 313.344C41.4712 305.71 35.282 299.52 27.6472 299.52C20.0125 299.52 13.8232 305.71 13.8232 313.344C13.8232 320.979 20.0125 327.168 27.6472 327.168ZM327.169 313.344C327.169 320.979 320.979 327.168 313.345 327.168C305.71 327.168 299.521 320.979 299.521 313.344C299.521 305.71 305.71 299.52 313.345 299.52C320.979 299.52 327.169 305.71 327.169 313.344ZM313.345 41.473C320.979 41.473 327.169 35.2838 327.169 27.649C327.169 20.0142 320.979 13.825 313.345 13.825C305.71 13.825 299.521 20.0142 299.521 27.649C299.521 35.2838 305.71 41.473 313.345 41.473ZM244.225 313.343C244.225 328.613 231.846 340.991 216.577 340.991C201.307 340.991 188.929 328.613 188.929 313.343C188.929 298.074 201.307 285.695 216.577 285.695C231.846 285.695 244.225 298.074 244.225 313.343ZM313.346 152.065C328.616 152.065 340.994 139.686 340.994 124.417C340.994 109.147 328.616 96.7687 313.346 96.7687C298.077 96.7687 285.698 109.147 285.698 124.417C285.698 139.686 298.077 152.065 313.346 152.065ZM55.297 216.576C55.297 231.846 42.9185 244.224 27.649 244.224C12.3794 244.224 0.000976562 231.846 0.000976562 216.576C0.000976562 201.307 12.3794 188.928 27.649 188.928C42.9185 188.928 55.297 201.307 55.297 216.576ZM1682.84 281.087H1633.17V63.6813H1682.84V281.087ZM1393.7 281.087H1445.63L1458.86 236.573H1534.98L1548.2 281.087H1601.43L1528.85 63.6813H1466.27L1393.7 281.087ZM1470.79 196.576C1486.92 141.526 1495.63 109.27 1496.92 99.808C1499.93 115.076 1508.64 147.332 1523.04 196.576H1470.79ZM1284.55 281.089H1237.46V53.0391H1284.55V281.089ZM1148.31 281.089H1195.41V53.0391H1148.31V281.089ZM1044.06 151.743C1036.54 151.743 1029.87 154.539 1024.06 160.13C1018.26 165.506 1014.39 173.57 1012.45 184.322H1069.22V180.451C1067.72 161.313 1059.33 151.743 1044.06 151.743ZM1103.09 271.736C1091.91 279.047 1073.84 282.703 1048.9 282.703C1023.96 282.703 1003.96 274.961 988.904 259.478C974.066 243.78 966.647 223.352 966.647 198.192C966.647 172.817 973.851 152.818 988.259 138.196C1002.88 123.358 1020.95 115.939 1042.45 115.939C1064.17 115.939 1081.37 122.39 1094.06 135.293C1106.75 147.98 1113.09 167.011 1113.09 192.386C1113.09 197.332 1112.23 205.826 1110.51 217.868H1014.39C1017.61 226.9 1023.2 233.889 1031.16 238.834C1039.12 243.78 1048.69 246.253 1059.87 246.253C1076.43 246.253 1090.83 241.63 1103.09 232.383V271.736ZM857.706 226.897C857.706 264.099 876.307 282.7 913.509 282.7C927.056 282.7 937.808 280.98 945.765 277.539V238.509C939.099 242.81 932.217 244.961 925.121 244.961C918.24 244.961 913.079 243.455 909.638 240.445C906.413 237.434 904.8 233.026 904.8 227.22V152.063H942.862V117.549H904.8V78.8422H857.706V117.549H834.159V152.063H857.706V226.897ZM747.646 151.743C740.119 151.743 733.453 154.539 727.647 160.13C721.841 165.506 717.97 173.57 716.035 184.322H772.806V180.451C771.3 161.313 762.914 151.743 747.646 151.743ZM806.674 271.736C795.492 279.047 777.429 282.703 752.484 282.703C727.54 282.703 707.541 274.961 692.488 259.478C677.65 243.78 670.231 223.352 670.231 198.192C670.231 172.817 677.435 152.818 691.843 138.196C706.466 123.358 724.529 115.939 746.033 115.939C767.752 115.939 784.955 122.39 797.643 135.293C810.33 147.98 816.674 167.011 816.674 192.386C816.674 197.332 815.814 205.826 814.093 217.868H717.97C721.196 226.9 726.787 233.889 734.743 238.834C742.7 243.78 752.269 246.253 763.451 246.253C780.009 246.253 794.417 241.63 806.674 232.383V271.736ZM481.772 281.087H531.447V205.608H546.607L593.701 281.087H653.052L597.894 197.544C624.344 185.716 637.569 164.32 637.569 133.354C637.569 112.71 630.15 95.9373 615.312 83.0349C600.69 70.1325 581.228 63.6813 556.929 63.6813H481.772V281.087ZM531.447 104.001H555.961C565.638 104.001 573.272 106.689 578.863 112.065C584.454 117.226 587.25 124.43 587.25 133.677C587.25 154.751 576.498 165.288 554.994 165.288H531.447V104.001Z"
      fill="white" />
  </g>
  <defs>
    <clipPath id="clip0_9063_24969">
      <rect width="1682.84" height="340.992" fill="white" />
    </clipPath>
  </defs>
</svg>