<svg width="102" height="28" viewBox="0 0 102 28" fill="none" xmlns="http://www.w3.org/2000/svg">
<g clip-path="url(#clip0_157_68)">
<path d="M86.769 21.35V10.325C86.769 10.111 86.941 9.936 87.15 9.936H88.964C89.174 9.936 89.346 10.111 89.346 10.326V21.33C89.3465 21.4321 89.3067 21.5303 89.2351 21.6032C89.1636 21.6761 89.0661 21.7177 88.964 21.719H87.15C86.94 21.738 86.769 21.564 86.769 21.35ZM88.067 8.167C88.889 8.167 89.555 7.487 89.555 6.65C89.555 5.812 88.889 5.133 88.067 5.133C87.244 5.133 86.577 5.813 86.577 6.65C86.577 7.488 87.244 8.167 88.067 8.167ZM41.075 8.303C41.075 7.273 41.857 6.65 43.193 6.65H48.423C48.4637 6.65028 48.504 6.64239 48.5416 6.62679C48.5792 6.6112 48.6132 6.58822 48.6418 6.55922C48.6703 6.53022 48.6927 6.49578 48.7077 6.45795C48.7227 6.42013 48.7299 6.37968 48.729 6.339V4.433C48.7298 4.39241 48.7225 4.35206 48.7074 4.31435C48.6924 4.27664 48.6699 4.24233 48.6414 4.21343C48.6129 4.18454 48.5789 4.16165 48.5414 4.14612C48.5038 4.13059 48.4636 4.12273 48.423 4.123H43.193C40.503 4.123 38.613 5.833 38.613 8.303C38.613 13.086 46.763 13.825 46.763 17.305C46.763 18.414 45.866 19.211 44.625 19.211H42.945C41.781 19.211 40.827 18.239 40.827 17.053V16.43C40.8275 16.328 40.7877 16.2299 40.7161 16.1572C40.6445 16.0845 40.547 16.0431 40.445 16.042H38.727C38.6251 16.0433 38.5279 16.0848 38.4566 16.1575C38.3852 16.2302 38.3455 16.3281 38.346 16.43V17.053C38.346 19.639 40.406 21.719 42.926 21.719H44.586C47.202 21.719 49.206 19.814 49.206 17.286C49.206 11.997 41.075 10.966 41.075 8.303ZM82.34 4.511V9.936H78.39C75.946 9.936 73.942 11.939 73.942 14.466V17.208C73.942 19.698 75.947 21.738 78.39 21.738H84.421C84.631 21.738 84.803 21.564 84.803 21.35V4.51C84.8035 4.40788 84.7637 4.30968 84.6921 4.23681C84.6206 4.16395 84.5231 4.12232 84.421 4.121H82.703C82.6039 4.12642 82.5107 4.17012 82.4432 4.24287C82.3757 4.31562 82.339 4.41175 82.341 4.511H82.34ZM82.34 19.211H78.39C77.302 19.211 76.424 18.297 76.424 17.208V14.467C76.424 13.358 77.321 12.464 78.39 12.464H82.34V19.211ZM69.514 10.325V19.211H66.556C65.449 19.191 64.59 18.355 64.59 17.228V10.325C64.5905 10.2743 64.5811 10.224 64.5622 10.177C64.5432 10.1299 64.5152 10.0871 64.4798 10.0509C64.4443 10.0147 64.402 9.98579 64.3554 9.96591C64.3088 9.94603 64.2587 9.93552 64.208 9.935H62.49C62.3878 9.93632 62.2903 9.97812 62.2189 10.0512C62.1474 10.1243 62.1079 10.2228 62.109 10.325V17.228C62.109 19.716 64.094 21.719 66.518 21.719H69.495V23.489C69.495 24.616 68.407 25.453 67.3 25.472H64.953C64.8509 25.4733 64.7534 25.5149 64.6819 25.5878C64.6103 25.6607 64.5705 25.7589 64.571 25.861V27.611C64.571 27.825 64.743 28 64.953 28H67.3C69.858 28 71.957 25.86 71.957 23.255V10.325C71.9581 10.2228 71.9186 10.1243 71.8471 10.0512C71.7757 9.97812 71.6782 9.93632 71.576 9.935H69.858C69.686 9.935 69.514 10.111 69.514 10.325ZM97.572 9.936H95.568C93.125 9.956 91.158 11.939 91.158 14.428V17.208C91.158 19.717 93.125 21.7 95.606 21.7H97.61C100.053 21.68 102.019 19.697 102.019 17.208V14.447C102 11.939 100.034 9.936 97.572 9.936ZM99.538 17.208C99.538 18.336 98.678 19.211 97.572 19.211H95.587C95.091 19.191 94.652 19.036 94.327 18.764C94.1014 18.5732 93.921 18.3346 93.7989 18.0655C93.6768 17.7963 93.616 17.5035 93.621 17.208V14.467C93.621 13.339 94.48 12.464 95.587 12.464H97.572C98.068 12.484 98.507 12.639 98.832 12.911C99.271 13.281 99.538 13.825 99.538 14.467V17.208ZM52.775 4.142H51.057C50.9549 4.14332 50.8574 4.18495 50.7859 4.25781C50.7143 4.33068 50.6745 4.42888 50.675 4.531V21.35C50.675 21.564 50.847 21.739 51.057 21.739H52.775C52.985 21.739 53.157 21.564 53.157 21.35V4.511C53.157 4.46138 53.1471 4.41227 53.1277 4.36658C53.1084 4.32089 53.0801 4.27955 53.0444 4.24503C53.0088 4.21052 52.9666 4.18352 52.9203 4.16564C52.874 4.14777 52.8246 4.13939 52.775 4.141V4.142ZM57.241 15.828L60.601 10.403C60.6312 10.3579 60.6486 10.3055 60.6514 10.2513C60.6542 10.1971 60.6422 10.1432 60.6167 10.0953C60.5913 10.0474 60.5533 10.0073 60.5069 9.9792C60.4604 9.95115 60.4073 9.93622 60.353 9.936H58.272C58.1835 9.93789 58.0968 9.96206 58.0201 10.0063C57.9434 10.0505 57.879 10.1133 57.833 10.189L54.722 15.049C54.6698 15.1377 54.6431 15.2391 54.645 15.342V16.333C54.65 16.4346 54.6763 16.5341 54.722 16.625L57.833 21.485C57.8789 21.5608 57.9432 21.6239 58.0199 21.6683C58.0967 21.7127 58.1834 21.737 58.272 21.739H60.333C60.581 21.739 60.734 21.466 60.601 21.253L57.241 15.828ZM0.802 24.85C0.802 26.386 1.794 27.436 3.245 27.767C3.435 27.805 3.97 28 7.272 28H27.523V10.13C1.833 17.968 0.802 23.294 0.802 24.85ZM0 14C25.252 9.003 30.672 5.95 30.672 4.142C30.672 2.606 27.485 2.158 27.485 2.158V0H0V14Z" fill="white"/>
</g>
<defs>
<clipPath id="clip0_157_68">
<rect width="102" height="28" fill="white"/>
</clipPath>
</defs>
</svg>
