<svg width="135" height="33" viewBox="0 0 135 33" fill="none" xmlns="http://www.w3.org/2000/svg">
<path d="M3.19225 13.0615C3.36201 10.8202 5.25368 9.06094 7.53337 9.03682C10.1041 9.0127 12.0685 11.2058 11.9958 13.7362C11.9472 15.1099 11.9472 16.4113 11.9958 17.785C12.117 20.4359 10.0556 22.7735 7.36362 22.7977C5.15668 22.8218 3.2165 21.2553 3.07099 19.0863C2.92548 16.9174 3.02248 15.1099 3.19225 13.0615Z" fill="white"/>
<path d="M15.4407 4.82006C15.6833 2.55471 17.6234 0.843635 19.9516 0.819535C22.5951 0.795435 24.705 2.9644 24.608 5.54305C24.3412 12.8211 24.3654 18.5327 24.6807 26.1C24.7777 28.6786 22.7164 30.8476 20.1214 30.8717C17.7932 30.8958 15.8045 29.1847 15.5862 26.8953C14.7859 18.7496 14.6162 12.8452 15.4407 4.82006Z" fill="white"/>
<path d="M27.7595 12.4587C28.0748 10.3861 29.9179 8.89197 32.0278 8.86786C34.7683 8.84374 36.8055 11.2537 36.7328 13.9529C36.6842 15.1819 36.7085 16.3628 36.8055 17.5919C36.9752 20.2428 34.9381 22.5805 32.2461 22.6287C30.0634 22.6528 28.1475 21.1104 27.808 18.9655C27.4442 16.7243 27.3715 15.1578 27.7595 12.4587Z" fill="white"/>
<path d="M39.9565 14.5085C40.2718 12.4841 42.2604 11.1586 44.3219 11.1345H45.195C47.5717 11.1104 49.3664 13.0384 49.3178 15.4001C49.2694 17.8342 47.4504 20.1959 44.9767 20.22H44.3219C42.2847 20.2442 40.3931 18.9427 40.0051 16.9666C39.8595 16.099 39.8353 15.3761 39.9565 14.5085Z" fill="white"/>
<path d="M72.5156 27.6576C72.5156 21.563 72.5156 15.4684 72.5156 9.3738C73.7526 9.3738 74.9379 9.3738 76.1748 9.3738C76.1748 9.8347 76.1748 10.2444 76.1748 10.7054C76.278 10.6542 76.3295 10.6029 76.381 10.6029C78.5972 8.29829 82.2047 8.75919 84.1637 10.4493C85.5549 11.6784 86.3283 13.2149 86.4826 15.0587C86.689 17.3121 86.1219 19.3095 84.4729 20.9484C82.3597 23.0482 79.0096 23.2531 76.7933 21.563C76.6387 21.4094 76.4326 21.2557 76.2264 21.102C76.2264 23.3555 76.2264 25.5066 76.2264 27.7088C74.9895 27.6576 73.7526 27.6576 72.5156 27.6576ZM82.7718 15.8781C82.7718 14.0344 81.5349 12.6516 79.7823 12.4979C77.9788 12.3442 76.5356 13.471 76.2264 15.3148C75.9172 17.0561 76.9479 18.7462 78.5972 19.2071C80.8136 19.7192 82.7718 18.1828 82.7718 15.8781Z" fill="white"/>
<path d="M70.0909 6.91254C69.4724 7.88563 68.8024 8.8075 68.184 9.78056C67.2563 8.96113 66.1739 8.44897 64.9885 8.29534C64.37 8.24415 63.7516 8.29534 63.1331 8.39778C62.6177 8.50023 62.2053 8.90995 62.1539 9.47329C62.0507 10.0879 62.36 10.4976 62.8239 10.8049C63.3393 11.1121 63.9062 11.3682 64.4731 11.5731C65.3492 11.9317 66.277 12.2901 67.1531 12.6486C67.4109 12.7511 67.6171 12.8535 67.8747 13.0072C71.431 14.8509 71.0186 19.1018 68.8024 20.9967C67.6686 21.9698 66.3801 22.4307 64.9369 22.5844C62.2054 22.8404 59.7315 22.2258 57.67 20.2797C56.8453 19.5115 56.8968 19.5115 57.5153 18.6408C58.0307 17.975 58.4946 17.3605 59.0615 16.6434C59.2161 16.797 59.3708 16.9507 59.4738 17.1044C60.7107 18.2823 62.1539 18.9993 63.9062 18.9481C64.4215 18.9481 64.937 18.7944 65.3493 18.5896C66.3286 18.0774 66.3801 16.9507 65.5038 16.2849C65.1431 16.0289 64.7308 15.824 64.3185 15.6703C63.3393 15.2606 62.36 14.9533 61.4323 14.5436C60.9685 14.3387 60.5046 14.0827 60.0407 13.7754C57.2061 11.8804 57.3092 7.88563 59.7315 5.99067C61.1746 4.81272 62.8754 4.45422 64.6793 4.55665C66.6377 4.65907 68.3386 5.32488 69.8332 6.60525C69.8847 6.65647 69.9878 6.70768 70.0394 6.7589C70.0394 6.81011 70.0394 6.81011 70.0909 6.91254Z" fill="white"/>
<path d="M117.096 22.3284C115.911 22.3284 114.776 22.3284 113.642 22.3284C113.642 21.9187 113.642 21.509 113.642 21.0992C113.539 21.1504 113.488 21.2017 113.437 21.2017C111.066 23.4552 106.994 23.0454 104.83 20.4846C102.356 17.5654 102.716 12.7 105.602 10.3441C107.613 8.70515 111.117 8.24425 113.437 10.4977C113.488 10.5489 113.539 10.5489 113.642 10.6513C113.642 10.1904 113.642 9.78073 113.642 9.31976C114.828 9.31976 115.962 9.31976 117.147 9.31976C117.096 13.7242 117.096 17.9751 117.096 22.3284ZM106.891 15.8241C106.891 17.7703 108.334 19.3067 110.241 19.3067C112.148 19.3067 113.591 17.7703 113.591 15.8241C113.591 13.8779 112.096 12.3926 110.189 12.3926C108.334 12.3926 106.891 13.8779 106.891 15.8241Z" fill="white"/>
<path d="M133.071 22.3286C132.71 22.3286 132.453 22.3286 132.143 22.3286C131.061 22.3286 129.927 22.3286 128.845 22.3286C128.69 22.3286 128.484 22.2261 128.381 22.0725C127.144 20.4848 125.907 18.8972 124.722 17.3095C124.619 17.2071 124.567 17.1046 124.464 17.0022L123.691 17.8217C123.691 17.8217 123.691 20.7409 123.691 21.9189C123.691 22.0725 123.691 22.1749 123.691 22.3286C122.454 22.3286 121.217 22.3286 119.98 22.3286C119.98 16.3364 119.98 10.3442 119.98 4.35205C121.217 4.35205 122.402 4.35205 123.691 4.35205C123.691 7.37374 123.691 10.3955 123.691 13.5196C123.845 13.3659 123.949 13.2635 124.052 13.161C125.289 11.9831 126.577 10.7539 127.814 9.62723C127.969 9.4736 128.175 9.37115 128.381 9.37115C129.772 9.37115 131.164 9.37115 132.555 9.42234C130.7 11.1636 128.845 12.8538 126.938 14.6463C129 17.2071 131.009 19.7166 133.071 22.3286Z" fill="white"/>
<path d="M91.9487 17.105C92.3093 18.2317 92.9278 18.9487 93.9583 19.3072C94.886 19.6145 95.8137 19.6145 96.7928 19.4097C97.7727 19.2048 98.7004 18.8463 99.5766 18.2829C100.04 19.1024 100.504 19.8706 100.968 20.69C101.019 20.7413 100.865 20.9461 100.761 20.9974C99.6795 21.7143 98.494 22.1753 97.257 22.4314C95.7109 22.7387 94.2161 22.6874 92.7214 22.2265C90.1447 21.4071 88.7528 19.5633 88.3407 17.0026C88.0829 15.4661 88.2893 13.9296 89.0106 12.5469C90.3511 10.0885 92.5157 9.01298 95.1952 9.06425C96.0201 9.06425 96.8964 9.21788 97.6691 9.47396C99.9887 10.2934 101.277 12.0347 101.586 14.4418C101.689 15.21 101.586 15.9783 101.586 16.6953C101.586 17.0026 101.484 17.105 101.174 17.105C98.2875 17.105 95.4016 17.105 92.4635 17.105C92.3093 17.105 92.1543 17.105 91.9487 17.105ZM97.9783 14.4418C97.8755 13.1102 96.5357 12.0347 95.041 12.0347C93.4948 12.0347 92.0515 13.1615 91.9487 14.4418C93.9583 14.4418 95.9687 14.4418 97.9783 14.4418Z" fill="white"/>
</svg>
