<svg fill="none" height="28" viewBox="0 0 115 28" width="115" xmlns="http://www.w3.org/2000/svg"><g fill="#fff"><path d="m2.98201 8.944c.75373-.26234 1.56848-.2944 2.34048-.09209.77201.20231 1.46633.62982 1.99452 1.22809.39624.4476.68849.9773.85577 1.5512s.20545 1.1777.11177 1.7681-.31689 1.1527-.65361 1.6466-.7786.9072-1.29393 1.2101c-.68825.4038-1.48107.5937-2.27758.5457-.79652-.0481-1.56073-.3321-2.19542-.8157-.63574-.484-1.113856-1.1455-1.373997-1.901-.262701-.7553-.295362-1.5715-.093848-2.3453.201515-.7739.628135-1.4705 1.225845-2.0017.396-.352.859-.622 1.36-.793z"/><path d="m9.88801 14.29c.93079-.3238 1.93699-.3632 2.89029-.1132.9533.2501 1.8106.7782 2.4627 1.5172.6548.7396 1.0759 1.6565 1.2102 2.6352.1344.9786-.024 1.9751-.4552 2.8638-.4299.8879-1.1133 1.6284-1.964 2.128-.8498.499-1.8288.7339-2.8125.6748s-1.92758-.4096-2.71149-1.0068c-.78524-.5978-1.37576-1.4148-1.697-2.348-.32487-.933-.36554-1.9414-.11685-2.8976.24869-.9561.77555-1.8169 1.51385-2.4734.48977-.4344 1.06077-.7675 1.68-.98z"/><path d="m14.16 9.168c.3545-.12321.7375-.13813 1.1005-.04285.3629.09528.6893.29644.9375.57785.1862.21061.3235.4598.4021.7297s.0965.5539.0524.8315c-.044.2776-.149.5421-.3072.7744-.1583.2324-.366.4268-.6083.5694-.242.1424-.5127.2291-.7925.2539-.2797.0247-.5614-.0131-.8247-.1108-.2633-.0976-.5016-.2527-.6975-.4539-.1959-.2011-.3446-.4434-.4353-.7092-.1237-.3556-.1392-.7398-.0445-1.1042s.2953-.69249.5765-.9428c.187-.165.405-.292.64-.373zm-5.13498-5.269c.62084-.21595 1.29188-.24216 1.92768-.07528.6358.16687 1.2076.51927 1.6423 1.01228.3261.36869.5665.80498.704 1.27757.1376.47258.1688.96976.0915 1.45583-.0774.48608-.2613.94902-.5387 1.3556-.2774.40657-.6414.74671-1.0658.996-.5665.3324-1.2191.4888-1.87476.4492-.65565-.0395-1.28473-.2731-1.80722-.6712-.52329-.39852-.91684-.94308-1.131-1.565-.21709-.62213-.2445-1.29472-.07874-1.93245.16575-.63773.51719-1.21186 1.00974-1.64955.327-.29.708-.512 1.121-.653zm12.36198 16.958 1.795-2.452c1.207 1.148 2.753 1.862 4.702 1.862 1.764 0 3.125-.62 3.125-1.738 0-1.242-1.547-1.645-3.403-2.08-2.538-.59-5.724-1.397-5.724-4.871 0-3.26 2.878-4.872 6.28-4.872 2.6 0 4.61.963 6.002 2.114l-1.825 2.452c-1.1373-1.0007-2.6001-1.55275-4.115-1.553-1.547 0-2.815.528-2.815 1.614 0 1.241 1.516 1.614 3.435 2.048 2.536.56 5.693 1.366 5.693 4.811 0 3.29-2.909 5.09-6.59 5.09-2.879-.005-5.044-1.091-6.56-2.425zm31.339-5.867c0 4.718-3.341 8.287-7.766 8.287-2.32 0-4.27-.992-5.569-2.665v7.392h-3.463v-20.927h3.463v2.298c1.3-1.676 3.249-2.666 5.569-2.666 4.425-.006 7.766 3.562 7.766 8.282zm-3.589 0c0-2.793-2.072-4.934-4.856-4.934s-4.89 2.145-4.89 4.935 2.108 4.935 4.889 4.935c2.78 0 4.857-2.142 4.857-4.935zm5.199 0c0-4.717 3.62-8.287 8.446-8.287 4.795 0 8.447 3.57 8.447 8.288s-3.652 8.286-8.447 8.286c-4.827 0-8.446-3.57-8.446-8.286zm13.304 0c0-2.793-2.073-4.934-4.857-4.934-2.783 0-4.888 2.141-4.888 4.935 0 2.793 2.107 4.935 4.888 4.935s4.857-2.142 4.857-4.935zm10.332-4.748v7.48c0 1.49.836 2.206 2.291 2.206.866 0 1.547-.25 2.166-.56v3.26c-.867.434-1.733.651-2.878.651-3.403 0-5.04-1.924-5.04-4.997v-8.04h-2.663v-3.165h2.657v-4.527h3.465v4.529h4.455v3.165zm29.298-3.165v15.828h-3.464v-2.266c-1.3 1.645-3.218 2.638-5.538 2.638-4.456 0-7.766-3.57-7.766-8.286 0-4.717 3.31-8.288 7.766-8.288 2.32 0 4.238.994 5.538 2.638v-2.264zm-3.464 7.914c0-2.794-2.073-4.935-4.857-4.935-2.816 0-4.888 2.141-4.888 4.935 0 2.793 2.068 4.931 4.887 4.931 2.785 0 4.858-2.138 4.858-4.931zm6.497-12.787c0-1.272999.958-2.2059989 2.199-2.2059989 1.268 0 2.228.9309999 2.228 2.2059989 0 1.241-.96 2.206-2.228 2.206-.437.00703-.867-.11882-1.231-.36093-.365-.24211-.647-.58908-.81-.99507-.109-.26999-.162-.55897-.158-.85zm.464 4.872h3.465v15.828h-3.465zm-24.26 12.387c.3546-.1234.7379-.1385 1.101-.0432.3632.0953.6897.2966.938.5782.2482.2816.4078.6302.4585 1.0021.0508.3719-.0094.7505-.1731 1.0883-.1636.3378-.4235.6197-.7468.8104-.3233.1906-.6958.2815-1.0706.2612-.3751-.0222-.7351-.1555-1.0343-.3828-.2992-.2274-.5239-.5387-.6457-.8942-.1652-.4765-.1345-.9991.0855-1.4529.2199-.4538.6111-.8017 1.0875-.9671z"/></g></svg>