<svg width="98" height="26" viewBox="0 0 98 26" fill="none" xmlns="http://www.w3.org/2000/svg">
<g clip-path="url(#clip0_2758_92)">
<path fill-rule="evenodd" clip-rule="evenodd" d="M7.90213 11.2693C12.1896 9.79145 12.9194 5.94182 12.3721 2.40235C12.3721 2.27463 12.4815 2.18341 12.591 2.2199C16.6961 4.22682 21.312 8.60555 21.312 15.1736C21.312 20.2092 17.4076 24.6609 11.7335 24.6609C9.70883 24.753 7.71114 24.1681 6.05575 22.9987C4.40036 21.8293 3.18154 20.1419 2.59167 18.2029C2.0018 16.2639 2.07447 14.1836 2.79821 12.2905C3.52196 10.3973 4.85555 8.79908 6.58851 7.74804C6.69798 7.67507 6.84393 7.74804 6.84393 7.87576C6.89867 8.55081 7.08111 10.2476 7.82915 11.2693H7.90213Z" fill="white"/>
<path fill-rule="evenodd" clip-rule="evenodd" d="M33.39 20.6653L33.7002 20.3004L34.6671 23.3655L34.5394 23.4932C33.8096 24.1683 32.7149 24.5149 31.3101 24.5149H31.2554C29.9782 24.5149 28.9748 24.15 28.2815 23.475C27.5882 22.7817 27.2233 21.7417 27.2233 20.4281V12.072H24.7603V8.69677H27.2233V4.6282H31.0182V8.69677H34.0286V12.072H30.9999V19.6071C30.9999 19.9537 31.0912 21.0667 32.1494 21.0667C32.6967 21.0667 33.2076 20.866 33.39 20.647V20.6653ZM35.3969 24.1683V8.71501H39.1918V24.1683H35.3969ZM37.2761 2.40234C37.7264 2.40236 38.1666 2.53566 38.5412 2.78546C38.9159 3.03526 39.2082 3.39037 39.3813 3.80603C39.5544 4.22169 39.6007 4.6793 39.5141 5.12118C39.4276 5.56307 39.2122 5.96945 38.8951 6.28911C38.578 6.60877 38.1733 6.8274 37.7321 6.91745C37.2909 7.0075 36.833 6.96493 36.4159 6.79511C35.9989 6.62529 35.6415 6.33583 35.3887 5.96319C35.1359 5.59056 34.9991 5.15144 34.9955 4.70118C34.9955 3.46054 36.0355 2.40234 37.2761 2.40234ZM49.3906 8.33187C52.6746 8.33187 54.4809 10.1199 54.4809 13.3857V24.15H50.686V14.2979C50.613 12.5464 49.7737 11.7436 47.9858 11.7436C46.3802 11.7436 45.0849 12.7288 44.428 13.5681V24.15H40.6331V8.73325H44.428V10.3753C45.5227 9.31709 47.2742 8.36836 49.3906 8.36836V8.33187ZM67.1062 10.3205V3.05915H70.9011V24.1865H67.1062V22.581C66.5255 23.1934 65.8269 23.6821 65.0525 24.0176C64.278 24.3531 63.4437 24.5285 62.5998 24.5332C58.4582 24.5332 55.685 21.2856 55.685 16.4508C55.685 11.5977 58.4582 8.35012 62.5998 8.35012C63.4456 8.35397 64.2817 8.53076 65.0566 8.86962C65.8316 9.20847 66.5291 9.70223 67.1062 10.3205ZM67.1062 13.5863C66.6833 13.0355 66.1428 12.5859 65.5242 12.2703C64.9056 11.9547 64.2244 11.781 63.5302 11.7619C61.1767 11.7619 59.6076 13.6411 59.6076 16.4508C59.6076 19.2422 61.1767 21.1214 63.5302 21.1214C64.8986 21.1214 66.3947 20.3916 67.1062 19.3334V13.5863ZM79.768 8.35012C84.2562 8.35012 87.3761 11.8166 87.3761 16.7427V17.7826H75.9002C76.2833 19.9537 77.9983 21.3403 80.3336 21.3403C81.8114 21.3403 83.4352 20.7018 84.3657 19.7713L84.6211 19.5524L86.4273 22.1431L86.2449 22.3073C84.5353 23.8231 82.3066 24.6205 80.0235 24.5332C75.2798 24.5332 71.9411 21.1944 71.9411 16.4325C71.9042 15.3812 72.0801 14.3332 72.4583 13.3516C72.8364 12.3699 73.4091 11.4748 74.1418 10.72C74.8745 9.9651 75.7522 9.36608 76.7221 8.95884C77.6921 8.5516 78.7343 8.34455 79.7863 8.35012H79.768ZM75.8819 14.9182H83.6724C83.4535 12.6011 81.5378 11.5429 79.768 11.5429C77.1043 11.5429 76.1008 13.5499 75.8819 14.9365V14.9182ZM96.5532 8.35012H96.8268V12.1815L96.4984 12.1268C96.2247 12.072 95.8781 12.0355 95.5314 12.0355C94.3091 12.0355 92.6123 12.893 91.9737 13.8053V24.15H88.1788V8.71501H91.992V10.43C93.2509 9.11639 94.9111 8.35012 96.5532 8.35012Z" fill="white"/>
</g>
<defs>
<clipPath id="clip0_2758_92">
<rect width="94.69" height="22.441" fill="white" transform="translate(2.15479 2.21991)"/>
</clipPath>
</defs>
</svg>
