<svg fill="none" height="145" viewBox="0 0 632 145" width="632" xmlns="http://www.w3.org/2000/svg" xmlns:xlink="http://www.w3.org/1999/xlink"><path d="m45.31 115.87c0-4.673 1.8564-9.155 5.1608-12.459 3.3044-3.305 7.7861-5.1609 12.4592-5.1609-7.3406-.0106-14.3775-2.9314-19.5681-8.1219-5.1906-5.1906-8.1113-12.2275-8.1219-19.5681 0 4.6731-1.8564 9.1548-5.1608 12.4592s-7.7861 5.1608-12.4592 5.1608-9.15483-1.8564-12.45922-5.1608-5.16078-7.7861-5.16078-12.4592c.0185279 16.6843 6.65458 32.6799 18.4522 44.4779 11.7977 11.797 27.7934 18.434 44.4778 18.452-4.6731 0-9.1548-1.856-12.4592-5.161-3.3044-3.304-5.1608-7.786-5.1608-12.459z" fill="#ffffff65"/><path d="m108.24 88.1801c-4.673 0-9.1547-1.8564-12.459-5.1608-3.3044-3.3044-5.1608-7.7861-5.1608-12.4592-.008 7.3414-2.9278 14.3798-8.119 19.571-5.1912 5.1911-12.2296 8.111-19.571 8.119 4.6731 0 9.1548 1.8559 12.4592 5.1609 3.3044 3.304 5.1608 7.786 5.1608 12.459s-1.8564 9.155-5.1608 12.459c-3.3044 3.305-7.7861 5.161-12.4592 5.161 16.6861-.016 32.6844-6.651 44.4838-18.449 11.8-11.798 18.438-27.7948 18.456-44.4809-.002 4.674-1.861 9.1557-5.167 12.4598s-7.789 5.1602-12.463 5.1602z" fill="#ffffff65"/><path d="m17.62 52.9399c4.6731 0 9.1548 1.8564 12.4592 5.1608s5.1608 7.7861 5.1608 12.4592v-48.25c0-4.6731-1.8564-9.1548-5.1608-12.45918-3.3044-3.30439-7.7861-5.16078-12.4592-5.16078s-9.15483 1.85639-12.45922 5.16078c-3.30439 3.30438-5.16078 7.78608-5.16078 12.45918v48.25c0-4.6731 1.85639-9.1548 5.16078-12.4592s7.78612-5.1608 12.45922-5.1608z" fill="#ffffff65"/><path d="m108.24 4.68994c-4.673 0-9.1547 1.85639-12.4591 5.16078-3.3044 3.30438-5.1608 7.78608-5.1608 12.45918v48.25c.1096-4.6017 2.0147-8.9781 5.3081-12.194 3.2933-3.2158 7.7138-5.0161 12.3168-5.0161s9.024 1.8003 12.317 5.0161c3.293 3.2159 5.198 7.5923 5.308 12.194v-48.25c-.003-4.674-1.861-9.1557-5.167-12.45979-3.306-3.3041-7.789-5.16017-12.463-5.16017z" fill="#ffffff65"/><path d="m62.9301 133.49c9.7312 0 17.62-7.889 17.62-17.62s-7.8888-17.62-17.62-17.62c-9.7313 0-17.62 7.889-17.62 17.62s7.8887 17.62 17.62 17.62z" fill="#fff"/><path d="m17.62 88.1799c9.7313 0 17.62-7.8887 17.62-17.62 0-9.7312-7.8887-17.62-17.62-17.62-9.73126 0-17.62 7.8888-17.62 17.62 0 9.7313 7.88874 17.62 17.62 17.62z" fill="#fff"/><path d="m108.24 88.1799c9.731 0 17.62-7.8887 17.62-17.62 0-9.7312-7.889-17.62-17.62-17.62-9.7311 0-17.6199 7.8888-17.6199 17.62 0 9.7313 7.8888 17.62 17.6199 17.62z" fill="#fff"/><g fill="#fff"><path d="m215.07 78.9999c0 4.5934-1.2 8.2167-3.6 10.87-2.4 2.6534-5.733 3.9867-10 4-2.545.0702-5.061-.5519-7.28-1.8-2.05-1.2127-3.687-3.0141-4.7-5.17-1.142-2.4737-1.703-5.176-1.64-7.9v-43.32h-20.67v43.82c-.126 6.0782 1.387 12.0782 4.38 17.37 2.877 4.9701 7.113 9.0151 12.21 11.6601 5.464 2.822 11.541 4.248 17.69 4.15 6.121.104 12.171-1.322 17.6-4.15 5.064-2.662 9.27-6.705 12.13-11.6601 2.993-5.2918 4.506-11.2918 4.38-17.37v-43.82h-20.5z"/><path d="m309.21 38.26c-4.475-2.8048-9.669-4.2468-14.95-4.15-5.374-.091-10.681 1.2039-15.41 3.76-2.403 1.334-4.594 3.0192-6.5 5v-7.19h-20.5v75.59h20.5v-43.35c-.028-2.7652.661-5.4904 2-7.91 1.237-2.2867 3.113-4.1632 5.4-5.4 2.406-1.2763 5.097-1.9198 7.82-1.87 1.989-.0595 3.969.2876 5.82 1.0201 1.85.7325 3.531 1.835 4.94 3.2399 1.42 1.4468 2.528 3.1695 3.256 5.0615.727 1.892 1.059 3.9132.974 5.9385v40.22h20.66v-45c.008-4.9677-1.288-9.8506-3.76-14.16-2.462-4.3985-5.986-8.1112-10.25-10.8z"/><path d="m400.61 39.28c-5.671-3.4721-12.211-5.2648-18.86-5.17-5.087-.0537-10.11 1.1267-14.64 3.44-2.485 1.2947-4.774 2.9343-6.8 4.87v-6.74h-20.51v107.32h20.35v-38.33c2.036 1.967 4.359 3.612 6.89 4.88 4.577 2.234 9.617 3.357 14.71 3.28 6.623.101 13.138-1.689 18.78-5.16 5.531-3.452 10.043-8.3152 13.07-14.09 3.231-6.1651 4.871-13.04 4.77-20 .115-7.0138-1.499-13.9481-4.7-20.19-2.983-5.8076-7.5-10.6875-13.06-14.11zm-5.79 44.72c-1.556 3.0625-3.947 5.6215-6.898 7.3807-2.95 1.7592-6.338 2.6465-9.772 2.5593-3.495.0445-6.935-.8759-9.94-2.66-2.912-1.7102-5.253-4.243-6.73-7.28-1.561-3.3014-2.338-6.9188-2.27-10.57-.075-3.6411.76-7.2433 2.43-10.48 1.551-2.9641 3.877-5.4523 6.73-7.2 2.942-1.7948 6.334-2.7172 9.78-2.66 3.423-.0804 6.799.801 9.746 2.544s5.346 4.2777 6.924 7.316c1.661 3.2393 2.493 6.8403 2.42 10.48.068 3.6681-.763 7.2971-2.42 10.57z"/><path d="m452.48 35.6799h-20.81v75.5901h20.81z"/><path d="m442.16.00000777c-1.549-.04173587-3.088.24401323-4.519.83854323-1.43.594529-2.719 1.484429-3.781 2.611459-1.068 1.09622-1.908 2.39339-2.471 3.81639-.563 1.42299-.838 2.9435-.809 4.4736-.044 1.544.224 3.081.787 4.5191.564 1.4381 1.412 2.7479 2.493 3.8509 2.237 2.1599 5.225 3.3671 8.335 3.3671s6.098-1.2072 8.335-3.3671c1.062-1.1137 1.892-2.4269 2.443-3.8636s.812-2.9683.767-4.5064c.06-3.07765-1.093-6.05544-3.21-8.28999-1.067-1.14119-2.366-2.03984-3.81-2.635072-1.444-.595236-2.999-.8731543-4.56-.81493023z"/><path d="m528 38.26c-4.489-2.8143-9.703-4.2566-15-4.15-5.375-.0924-10.682 1.2026-15.41 3.76-2.404 1.3339-4.594 3.0192-6.5 5v-7.19h-20.5v75.59h20.5v-43.35c-.028-2.7652.661-5.4905 2-7.91 1.237-2.2867 3.113-4.1633 5.4-5.4 2.406-1.2763 5.097-1.9198 7.82-1.87 1.997-.0664 3.987.2773 5.846 1.01s3.549 1.8388 4.964 3.25c1.42 1.4468 2.528 3.1694 3.255 5.0614.728 1.8921 1.06 3.9133.975 5.9386v40.22h20.65v-45c.011-4.9669-1.282-9.8498-3.75-14.16-2.465-4.3965-5.988-8.1086-10.25-10.8z"/><path d="m610.86 35.68v6.39c-1.97-1.939-4.243-3.5434-6.73-4.75-4.641-2.1981-9.726-3.2966-14.86-3.21-6.426-.1-12.753 1.5934-18.27 4.89-5.396 3.241-9.818 7.8771-12.8 13.42-3.138 5.8706-4.728 12.4442-4.62 19.1-.094 6.702 1.494 13.3207 4.62 19.25 2.964 5.6504 7.437 10.368 12.922 13.627 5.486 3.259 11.768 4.932 18.148 4.833 5.116.109 10.185-.998 14.79-3.23 2.441-1.239 4.683-2.837 6.65-4.74v6.61c0 5.533-1.88 9.943-5.64 13.23s-8.76 4.93-15 4.93c-4.516.111-8.994-.845-13.07-2.79-3.755-1.953-7.081-4.639-9.78-7.9l-13.15 13c3.806 5.247 8.9 9.424 14.79 12.13 6.719 2.99 14.017 4.458 21.37 4.3 7.357.147 14.646-1.435 21.28-4.62 5.969-2.904 10.993-7.439 14.49-13.08 3.563-5.892 5.381-12.675 5.24-19.56v-71.83zm-1.33 45.77c-1.44 2.7965-3.668 5.1088-6.41 6.65-3.052 1.6374-6.479 2.4476-9.94 2.35-3.366.0417-6.684-.8033-9.62-2.45-2.818-1.5607-5.129-3.8963-6.66-6.73-1.594-3.0099-2.399-6.3747-2.34-9.78-.039-3.3581.803-6.6678 2.44-9.6 1.547-2.7952 3.82-5.1205 6.58-6.73 3-1.5893 6.344-2.4201 9.74-2.4201 3.395 0 6.739.8308 9.74 2.4201 2.769 1.5674 5.024 3.9055 6.49 6.73 1.553 3.0224 2.333 6.3825 2.27 9.78.059 3.3994-.728 6.7602-2.29 9.78z"/></g></svg>