<svg xmlns="http://www.w3.org/2000/svg" width="106" height="16" viewBox="0 0 106 16" fill="none">
  <g clip-path="url(#clip0_790_64460)">
    <path d="M82.8045 4.82181V6.25606H82.8453C83.4984 5.14964 84.6007 4.51447 85.9274 4.51447C87.9868 4.51447 89.447 5.6972 89.4785 8.34026L89.4788 8.40802L89.4956 8.33029C90.0168 5.9937 92.0407 4.51447 94.6511 4.51447C96.3696 4.51447 97.8308 5.14702 98.7823 6.23822L98.7822 4.82181H100.619V1.64111H103.701V4.82181H105.026V7.40346H103.701V10.2515C103.701 11.1142 103.917 11.4072 104.673 11.419L104.722 11.4194H105.026V14.2879H103.783C101.887 14.2879 100.648 13.3872 100.62 11.1704L100.619 11.0916V7.40346L99.523 7.40341C99.8046 8.03875 99.9581 8.76176 99.9581 9.55484C99.9581 12.5873 97.7129 14.5952 94.6511 14.5952C92.012 14.5952 89.9723 13.0832 89.479 10.7018V14.2879H86.4173V9.28848C86.4173 7.87472 85.8254 7.23955 84.6823 7.23955C83.6576 7.23955 82.89 7.83517 82.8663 9.45637L82.8657 9.53435V14.2879L79.8266 14.2878V4.8217L82.8045 4.82181ZM55.6985 1.64111V6.07166H55.7394C56.3925 5.06768 57.4131 4.51447 58.7603 4.51447C60.7754 4.51447 62.2169 5.64695 62.3074 8.17201C62.7915 5.75889 64.5643 4.51447 66.6471 4.51447C68.148 4.51447 69.0995 5.12498 69.694 6.05637L69.7293 6.11264H69.7701V4.82181H74.3502V1.64111H77.4324V4.82181L78.665 4.8217V7.40337L77.4324 7.40346V10.2515C77.4324 11.1142 77.6476 11.4072 78.4039 11.419L78.4529 11.4194L78.665 11.4193V14.2878L77.514 14.2879C75.6176 14.2879 74.3793 13.3872 74.3507 11.1704L74.3502 11.0916V7.40346L72.8522 7.40337V14.2879H69.7701V12.9971H69.7293C69.1373 13.9601 68.178 14.5952 66.6471 14.5952C64.5706 14.5952 62.8021 13.3582 62.3118 10.9591L62.3119 14.2879H59.2297V9.28848C59.2297 7.87472 58.6378 7.23955 57.5152 7.23955C56.4904 7.23955 55.7228 7.83517 55.6991 9.45637L55.6985 9.53435V14.2879H52.6164L52.6163 6.32093L49.7304 14.2879H47.0973L45.0153 8.75575L42.9538 14.2879H40.3207L36.8711 4.82181H39.9328L41.6882 10.3744L43.6069 4.82181H46.4441L48.3424 10.3744L50.1182 4.82181L52.6163 4.8217L52.6164 1.64111H55.6985ZM67.5044 7.34199C66.2797 7.34199 65.3408 8.20254 65.3408 9.55484C65.3408 10.9072 66.2797 11.7677 67.5044 11.7677C68.7495 11.7677 69.6884 10.9072 69.6884 9.55484C69.6884 8.20254 68.7495 7.34199 67.5044 7.34199ZM94.6511 7.34199C93.4264 7.34199 92.4467 8.20254 92.4467 9.55484C92.4467 10.9072 93.4264 11.7677 94.6511 11.7677C95.8962 11.7677 96.8556 10.9072 96.8556 9.55484C96.8556 8.20254 95.8962 7.34199 94.6511 7.34199Z" fill="white"/>
    <path d="M9.11577 1.57333C8.14976 0.601589 6.8118 0 5.33333 0C2.38781 0 0 2.38781 0 5.33333C0 6.81396 0.603346 8.15366 1.57759 9.12L6.88423 14.4267C7.85024 15.3984 9.1882 16 10.6667 16C12.1394 16 13.4728 15.403 14.4379 14.4379L14.4456 14.4302L14.4491 14.4267L14.8915 13.9842C14.9501 13.9256 14.9695 13.8383 14.9411 13.7604L13.829 10.7047L17.5509 14.4267C18.5169 15.3984 19.8549 16 21.3333 16C22.8118 16 24.1498 15.3984 25.1158 14.4267L30.4224 9.12C31.3967 8.15366 32 6.81396 32 5.33333C32 2.38781 29.6122 0 26.6667 0C25.1882 0 23.8502 0.601589 22.8842 1.57333L21.4842 2.97339C21.4009 3.0567 21.2658 3.0567 21.1825 2.97339L19.7824 1.57333C18.8164 0.601594 17.4785 0 16 0C14.5215 0 13.1836 0.601589 12.2176 1.57333L10.8175 2.97339C10.7342 3.0567 10.5991 3.0567 10.5158 2.97339L9.11577 1.57333Z" fill="white"/>
  </g>
  <defs>
    <clipPath id="clip0_790_64460">
      <rect width="106" height="16" fill="white"/>
    </clipPath>
  </defs>
</svg>